<svg viewBox="0 0 22 36" xmlns="http://www.w3.org/2000/svg">
<path d="M20.8933 0.000107736C21.6673 -0.000478954 21.5938 -0.0161238 21.5938 0.729364C21.5945 8.10524 21.5945 15.4811 21.5945 22.857C21.5945 23.4444 21.5801 24.0319 21.5991 24.6194C21.6105 24.9487 21.5157 25.192 21.2868 25.4275C19.2882 27.4829 17.2923 29.5408 15.297 31.5994L11.3067 35.7169C11.256 35.7692 10.9444 35.9621 10.839 35.9996C10.8208 35.9973 10.7712 36.0012 10.753 35.9996C10.7325 35.9988 10.3095 35.7649 10.261 35.7149C6.99761 32.3387 3.7327 28.964 0.456428 25.6019C0.144871 25.2827 -0.000673919 24.9667 2.34552e-06 24.5013C0.013729 16.5849 0.00993872 8.66924 0.00993872 0.752832V0.682429C0.0129064 -0.0380106 -0.0342289 -0.000886516 0.635359 0.00101937L0.680051 0.00108561C5.9841 -0.000478895 11.2874 0.000107736 16.5914 0.000107736C18.0249 0.000107736 19.4591 0.00108555 20.8933 0.000107736ZM11.7149 10.5404C11.7149 17.9155 11.7149 25.2256 11.7157 32.5428C11.9674 32.5131 12.0598 32.334 12.1826 32.2073C14.5182 29.8026 16.8507 27.3948 19.1832 24.9863C19.5933 24.5623 19.5933 24.5584 19.2825 23.9975C16.9053 19.7021 14.5296 15.4068 12.1447 11.1161C12.0394 10.9268 11.9848 10.6796 11.7149 10.5404ZM9.98128 10.3738C9.8471 10.4841 9.80086 10.5044 9.77964 10.5412C7.25989 15.0767 4.74545 19.6145 2.21661 24.1446C2.03165 24.4755 2.0794 24.6648 2.32956 24.9213C4.7356 27.3862 7.12951 29.8644 9.52948 32.3355C9.61438 32.4232 9.68109 32.5874 9.83876 32.5084C10.0169 25.1591 9.98128 17.8193 9.98128 10.3738ZM14.2529 10.9714C14.1771 11.0301 14.1718 11.095 14.2377 11.1662C14.3211 11.3328 14.3977 11.5026 14.4879 11.6653C16.0547 14.4962 17.6239 17.3257 19.1915 20.1551C19.3545 20.45 19.5167 20.7449 19.66 21.0062C19.7949 20.9936 19.8146 20.9608 19.8146 20.9013C19.8154 19.2336 19.8093 17.5658 19.8261 15.898C19.8291 15.5891 19.6676 15.4303 19.4713 15.2676C18.5866 14.5314 17.7088 13.7875 16.8158 13.0632C15.9592 12.3685 15.1602 11.5988 14.2529 10.9714ZM7.43197 11.0215C7.3789 10.9487 7.31826 10.9409 7.25004 10.9988C5.52851 12.417 3.81306 13.8415 2.08092 15.2449C1.82622 15.4522 1.78301 15.6806 1.78377 15.9739C1.78983 17.5244 1.78528 19.074 1.79059 20.6236C1.79059 20.7449 1.71782 20.9162 1.94826 20.9757C3.04895 18.9879 4.15569 16.9948 5.25789 15C5.98865 13.6772 6.7664 12.3818 7.43197 11.0215ZM19.444 7.75243C17.4685 7.75635 15.4923 7.75478 13.5168 7.75478C13.4963 7.80172 13.4751 7.84787 13.4546 7.89403C15.5393 9.62124 17.5951 11.3868 19.8162 13.1813C19.8162 11.3797 19.8124 9.7464 19.8192 8.11384C19.8207 7.82988 19.6903 7.75166 19.444 7.75243ZM2.15521 7.75007C1.78266 7.74783 1.7839 7.96639 1.78516 8.22379L1.78528 8.25308C1.78756 9.70651 1.78452 11.1607 1.78907 12.6149C1.78983 12.7448 1.73449 12.8942 1.90884 13.0483C3.97831 11.3352 6.0546 9.61577 8.13089 7.89637C8.11421 7.84944 8.09753 7.8025 8.08161 7.75557C6.10614 7.75557 4.13068 7.76261 2.15521 7.75007ZM2.10442 1.88084C1.86715 1.88006 1.78756 2.00444 1.78831 2.22816C1.78983 3.35461 1.79362 4.48027 1.78525 5.60593C1.78301 5.88129 1.89596 5.97437 2.15066 5.97046C2.71844 5.96029 3.28773 5.94621 3.85475 5.97672C4.18071 5.99393 4.2838 5.8586 4.34141 5.55509C4.51652 4.62655 4.84172 3.7559 5.39434 2.99086C5.63691 2.65527 5.89465 2.33064 6.23577 1.88241C4.77198 1.88241 3.43782 1.88397 2.10442 1.88084ZM19.3848 1.87767C18.4759 1.88319 17.5678 1.87928 16.6589 1.87928H15.4566C16.3981 3.05344 17.0349 4.27063 17.2615 5.69902C17.2957 5.91414 17.4086 5.96499 17.5852 5.96499C18.2212 5.96421 18.8572 5.96264 19.4932 5.96579C19.7199 5.96733 19.8184 5.86329 19.8177 5.62705C19.8131 4.50217 19.8109 3.37651 19.82 2.25163C19.823 1.91917 19.6433 1.87615 19.3848 1.87767ZM15.4536 5.9423C15.327 4.03517 13.2697 1.7682 10.59 1.88084C8.02476 1.98801 6.15693 4.27532 6.14708 5.9423H15.4536Z" />
<path d="M13.9152 25.5683H14.298V25.7075H13.9152V25.5683ZM13.7014 25.9962H14.6398V26.1284H13.7014V25.9962ZM13.715 25.1036H14.9878V25.6113H13.715V25.1036ZM13.12 25.537H14.0008V25.7075H13.12V25.537ZM12.6121 23.8457H13.5786V24.0296H12.6121V23.8457ZM13.374 23.9978L13.5765 23.8515L14.1056 24.6313L13.9032 24.7776L13.374 23.9978ZM13.715 25.6113H14.0008V25.7075H13.715V25.6113ZM15.8702 20.0197H16.1802V25.6301H15.8702V20.0197ZM13.1191 22.2942L13.252 22.1571L15.001 23.9619L14.8681 24.0991L13.1191 22.2942ZM14.8726 23.1081H15.1576V24.2666H14.8726V23.1081ZM14.1289 23.8457H14.3995V24.5842H14.1289V23.8457ZM14.8726 23.8457H15.6837V25.6301H14.8726V23.8457ZM12.8501 24.6538H15.1053V25.3422H12.8501V24.6538ZM13.1086 24.3667H13.4391V24.6538H13.1086V24.3667ZM13.3633 24.5842H14.9317V24.7743H13.3633V24.5842ZM14.3995 24.1352H15.0454V24.6788H14.3995V24.1352ZM14.6626 23.6869H14.9704V24.1884H14.6626V23.6869ZM15.6162 24.0961H16.2173V25.6301H15.6162V24.0961ZM16.0741 23.8481H16.8473V24.8243H16.0741V23.8481ZM15.4502 25.537H15.7178V26.3404H15.4502V25.537ZM13.3163 25.3219H13.8742V25.3993H13.3163V25.3219ZM16.0256 25.3219H16.2173V26.0861H16.0256V25.3219ZM14.8165 25.598H15.1583V26.1284H14.8165V25.598ZM14.0994 25.598H16.0915V25.7044H14.0994V25.598ZM14.0994 25.7044H14.3791V25.9962H14.0994V25.7044ZM13.12 25.3352H13.3163V25.6512H13.12V25.3352ZM13.632 26.0675L13.6279 26.0697C13.6339 26.0587 13.6385 26.0556 13.6407 26.0439C13.6498 26.04 13.643 26.0376 13.6574 26.0306C13.6612 26.0173 13.6847 26.0055 13.7014 25.9954C13.7006 25.9977 13.6976 26.0009 13.6999 26.0009C13.7014 25.9993 13.7029 25.9985 13.7052 25.9985C13.7047 25.9981 13.7044 25.9976 13.7043 25.9969L13.7045 25.9959L13.7029 25.9969L13.7046 25.9951C13.7058 25.9924 13.7085 25.9897 13.7123 25.988L13.7127 25.9878L13.7142 25.9868C13.7183 25.984 13.7226 25.9821 13.7272 25.9813L13.725 25.9829C13.7266 25.9833 13.7264 25.9843 13.7266 25.9851L13.7272 25.986C13.7302 25.9829 13.7279 25.9821 13.7302 25.979C13.7408 25.9719 13.7582 25.9664 13.7643 25.9594C13.7742 25.9578 13.759 25.9664 13.7666 25.9657L13.7676 25.9646L13.7681 25.9641L13.7685 25.9639L13.7742 25.9592C13.7871 25.9497 13.801 25.9469 13.8124 25.9463L13.8189 25.9461C13.8166 25.9461 13.8151 25.9477 13.8196 25.9477C13.8105 25.9508 13.7999 25.961 13.8068 25.9633C13.8084 25.9624 13.8096 25.9615 13.8105 25.9608L13.813 25.9581L13.8129 25.9595C13.8131 25.9607 13.8139 25.9616 13.8157 25.9621L13.8189 25.9625C13.8242 25.957 13.8234 25.9539 13.8189 25.9524L13.8196 25.9527L13.819 25.9518C13.8187 25.951 13.8189 25.95 13.8204 25.9486L13.8234 25.9461C13.831 25.9461 13.8212 25.9524 13.8272 25.9531C13.8333 25.9516 13.834 25.9539 13.8424 25.9492L13.8428 25.9488C13.8386 25.9478 13.8339 25.9522 13.8272 25.9516C13.834 25.9461 13.8424 25.9461 13.8507 25.9414L13.8532 25.9419L13.8566 25.9403C13.8681 25.9357 13.8829 25.9334 13.8955 25.9301L13.9045 25.9273C13.8992 25.9305 13.8939 25.9328 13.8985 25.9344C13.9098 25.932 13.9136 25.9336 13.9167 25.9273C13.9303 25.9312 13.922 25.9218 13.9333 25.925C13.925 25.9273 13.9273 25.9305 13.9265 25.9328C13.9288 25.9336 13.9311 25.9328 13.9341 25.9328C13.9349 25.9305 13.9326 25.9281 13.9409 25.9265C13.944 25.9312 13.9538 25.9289 13.9531 25.925C13.9902 25.9312 14.0273 25.9312 14.0433 25.9477C14.0501 25.9453 14.0554 25.95 14.063 25.9477C14.0698 25.9563 14.0766 25.9563 14.0834 25.9539C14.0948 25.9602 14.0971 25.9641 14.1054 25.9617C14.1138 25.9672 14.0971 25.9625 14.1009 25.9664C14.1062 25.9719 14.1122 25.9688 14.1122 25.975C14.1183 25.9735 14.1229 25.9758 14.1259 25.979C14.1236 25.979 14.1206 25.979 14.1213 25.9805C14.1517 25.9922 14.1835 26.0165 14.207 26.0267C14.2017 26.0212 14.1865 26.0142 14.1865 26.0095C14.188 26.0118 14.1918 26.0142 14.1911 26.0118C14.1873 26.0079 14.182 26.0024 14.182 26.0079C14.1729 26.0016 14.1797 25.9985 14.1858 25.9993C14.1934 26.0095 14.204 26.0235 14.2115 26.0188C14.2123 26.0243 14.2191 26.022 14.2206 26.0275C14.2176 26.029 14.2115 26.0228 14.2131 26.0267C14.2153 26.0314 14.2206 26.0329 14.2252 26.0345C14.2252 26.0329 14.2244 26.0314 14.226 26.0314C14.229 26.0368 14.226 26.0384 14.2184 26.0361C14.2146 26.0321 14.2161 26.0306 14.2078 26.029C14.2131 26.0361 14.2017 26.0321 14.2047 26.0376C14.2085 26.0384 14.2108 26.0415 14.2138 26.0431C14.2188 26.0407 14.2256 26.0413 14.2325 26.0435L14.2376 26.0454L14.2381 26.047C14.2389 26.0468 14.2398 26.0467 14.2407 26.0468L14.2459 26.0495L14.2501 26.0522L14.2526 26.053C14.2582 26.0547 14.2648 26.0566 14.2684 26.0634C14.2639 26.0634 14.2623 26.0595 14.2578 26.0595L14.2581 26.0602L14.2602 26.0615C14.2623 26.0633 14.2644 26.066 14.2665 26.0687L14.2693 26.0726L14.2664 26.0706L14.2639 26.0673C14.2616 26.0683 14.2639 26.0712 14.2665 26.0742L14.2672 26.0749L14.2683 26.0751C14.2695 26.0754 14.2711 26.0759 14.2722 26.0759L14.2693 26.0726C14.2721 26.0743 14.2745 26.076 14.2752 26.0791C14.2737 26.0786 14.2725 26.0787 14.2717 26.0791L14.2709 26.0796L14.2722 26.0801C14.2745 26.0805 14.2768 26.0804 14.2785 26.0811L14.2805 26.083L14.2799 26.0833L14.2813 26.0838L14.2858 26.0895L14.2861 26.0898C14.2832 26.0879 14.2782 26.0859 14.2788 26.0842L14.2799 26.0833L14.276 26.0822C14.278 26.0843 14.2799 26.0865 14.2819 26.0886L14.2867 26.0938C14.2864 26.0923 14.2863 26.0917 14.2863 26.0913L14.2871 26.0908L14.2909 26.0948L14.2929 26.0979H14.2942C14.2947 26.0989 14.2953 26.0999 14.2959 26.1009L14.2973 26.1029L14.2957 26.1025C14.2957 26.1061 14.2987 26.1074 14.3008 26.1095L14.3025 26.1119C14.3031 26.1119 14.3033 26.1116 14.3034 26.1112L14.3033 26.1095L14.304 26.1112C14.3107 26.1124 14.3091 26.1142 14.3102 26.1164L14.3116 26.1182C14.3135 26.119 14.3146 26.1188 14.3154 26.1181V26.119C14.3196 26.1215 14.32 26.1195 14.3215 26.1186L14.323 26.1182C14.3283 26.1221 14.3184 26.1198 14.3222 26.1268C14.3254 26.1296 14.3275 26.1288 14.33 26.1288L14.3325 26.1293L14.3334 26.1319C14.3339 26.1333 14.3343 26.1347 14.3348 26.1361L14.3366 26.1401C14.3344 26.1417 14.329 26.1393 14.3275 26.1417L14.3294 26.1407L14.3325 26.1431C14.3336 26.1441 14.3347 26.1454 14.3359 26.1471L14.334 26.1474L14.3321 26.147C14.3337 26.1492 14.3351 26.1513 14.3367 26.1534L14.3419 26.1589C14.3457 26.1589 14.348 26.1557 14.351 26.1628C14.348 26.1636 14.3434 26.1565 14.345 26.1643C14.351 26.1643 14.3503 26.169 14.3533 26.1722L14.3579 26.1683C14.3601 26.1714 14.3518 26.1597 14.3563 26.162C14.3616 26.169 14.3563 26.1675 14.3601 26.1675C14.3616 26.1643 14.3609 26.1659 14.3624 26.1643C14.3627 26.1642 14.3637 26.1633 14.3647 26.1628C14.3639 26.1659 14.3632 26.1683 14.3609 26.169C14.3632 26.1706 14.3624 26.1729 14.3647 26.1737C14.3647 26.1769 14.3594 26.1816 14.3639 26.1831C14.3685 26.1847 14.3662 26.1784 14.3715 26.18C14.3723 26.1847 14.3654 26.1808 14.3662 26.1855C14.3692 26.1917 14.3738 26.1972 14.3814 26.1988C14.3768 26.2019 14.3851 26.2035 14.3859 26.205C14.3874 26.2082 14.3829 26.2121 14.3867 26.2136C14.3904 26.2128 14.3973 26.2121 14.3995 26.2121C14.3988 26.2144 14.3995 26.2168 14.4003 26.2199C14.398 26.2238 14.3958 26.216 14.3942 26.2199C14.3973 26.223 14.4033 26.2301 14.4071 26.2269C14.4064 26.2246 14.4011 26.2246 14.4041 26.2214C14.4056 26.2219 14.407 26.2228 14.4083 26.2239L14.411 26.2266L14.4089 26.2286C14.4072 26.2302 14.4054 26.2318 14.4034 26.2327L14.4003 26.2332C14.4018 26.2387 14.4086 26.2379 14.4132 26.2387C14.4132 26.2355 14.4132 26.2324 14.4102 26.2324C14.4105 26.2314 14.4111 26.2307 14.4118 26.2301L14.4133 26.2291L14.4156 26.2316C14.4168 26.2328 14.418 26.2339 14.4192 26.2346L14.423 26.2355C14.4284 26.2441 14.4291 26.2512 14.4367 26.2488C14.4367 26.2512 14.4352 26.2543 14.439 26.2543C14.439 26.2527 14.4397 26.252 14.439 26.2496L14.4458 26.248C14.4428 26.2559 14.4556 26.252 14.4534 26.2567C14.4518 26.2535 14.4496 26.2559 14.4488 26.2582C14.4519 26.2582 14.4519 26.2645 14.4556 26.2621C14.4564 26.2574 14.4587 26.2613 14.4625 26.2606C14.4647 26.2637 14.4594 26.2629 14.4617 26.266C14.4625 26.2653 14.464 26.2653 14.464 26.266C14.4625 26.2699 14.4556 26.2637 14.4549 26.2707C14.4609 26.2692 14.4632 26.2817 14.4685 26.2739C14.4693 26.2762 14.4678 26.277 14.4685 26.2793C14.4723 26.277 14.4746 26.2817 14.4761 26.2778C14.4754 26.2754 14.4716 26.2793 14.4716 26.2754C14.4784 26.2739 14.4807 26.277 14.4852 26.2723C14.486 26.2754 14.4822 26.277 14.4829 26.2801L14.4822 26.2778C14.4807 26.2759 14.4777 26.2779 14.4766 26.2805L14.4761 26.2825C14.4807 26.2809 14.4829 26.284 14.4867 26.2832C14.4875 26.2809 14.4867 26.2793 14.486 26.277C14.4898 26.2739 14.4913 26.277 14.4943 26.2762C14.4958 26.2793 14.4943 26.2801 14.4943 26.2825C14.5004 26.2778 14.5072 26.2848 14.5125 26.2801L14.5102 26.2872C14.514 26.2903 14.5125 26.2825 14.5155 26.2856C14.5148 26.2864 14.514 26.2872 14.5148 26.2887C14.5163 26.2879 14.5186 26.2872 14.5193 26.2848C14.517 26.2848 14.5155 26.284 14.514 26.2825C14.5155 26.2809 14.5155 26.2793 14.514 26.277C14.5186 26.277 14.5216 26.2801 14.5254 26.2793C14.5284 26.2762 14.5269 26.2739 14.5269 26.2707C14.5299 26.2739 14.5269 26.2739 14.5292 26.2778C14.5239 26.2832 14.5223 26.2809 14.5178 26.2817C14.5201 26.2848 14.5193 26.2856 14.5216 26.2879C14.5299 26.2825 14.5481 26.2997 14.5458 26.2809V26.2812L14.5457 26.2823C14.5452 26.283 14.5442 26.2832 14.5437 26.2826L14.5436 26.2809C14.5443 26.2801 14.5474 26.2809 14.5466 26.2786C14.5443 26.2778 14.5421 26.2825 14.539 26.2848C14.5368 26.2778 14.5345 26.2848 14.5322 26.2809C14.5337 26.2778 14.5345 26.2817 14.536 26.2809L14.5352 26.2746C14.5375 26.2731 14.5375 26.2692 14.5398 26.2731C14.5398 26.2762 14.5352 26.2754 14.5375 26.2809C14.5405 26.2762 14.5428 26.2739 14.5421 26.27C14.5413 26.2684 14.5383 26.2715 14.539 26.2668C14.5398 26.2676 14.5405 26.2676 14.5413 26.266C14.5428 26.2715 14.5474 26.2668 14.5466 26.2754L14.5477 26.273C14.5496 26.2698 14.553 26.2668 14.5559 26.2681L14.558 26.27C14.5572 26.2692 14.5572 26.2676 14.5572 26.2668C14.558 26.2676 14.5595 26.2684 14.5595 26.2668C14.561 26.2692 14.5618 26.2715 14.561 26.2739C14.558 26.2723 14.5557 26.2739 14.5527 26.2739C14.5532 26.2746 14.5533 26.2754 14.5532 26.2762L14.5531 26.2774L14.5521 26.2783L14.5504 26.2801C14.5512 26.2801 14.552 26.2801 14.5529 26.28L14.5539 26.2796L14.5542 26.2801L14.5545 26.2795L14.5555 26.2792L14.558 26.277L14.5598 26.2768L14.5605 26.2765L14.5609 26.2754L14.5612 26.2762L14.5622 26.2759L14.564 26.2731C14.5625 26.2715 14.5618 26.2731 14.5618 26.2692C14.564 26.266 14.5724 26.2684 14.5701 26.2613L14.5711 26.2636C14.5721 26.2657 14.5734 26.2671 14.5744 26.2655L14.5754 26.2629C14.5769 26.2645 14.5769 26.266 14.5784 26.2668C14.5784 26.2707 14.5754 26.2653 14.5754 26.2692C14.5807 26.2723 14.5739 26.2707 14.5762 26.2731C14.5784 26.2746 14.5792 26.2715 14.5807 26.2715C14.5777 26.2676 14.5815 26.2668 14.5784 26.2629C14.58 26.2653 14.586 26.2684 14.5853 26.2629C14.5868 26.2645 14.5875 26.2629 14.5891 26.2637C14.5928 26.2699 14.583 26.2707 14.5883 26.2746C14.5784 26.2723 14.5754 26.2793 14.5686 26.2825C14.5724 26.2872 14.5731 26.277 14.5762 26.2832C14.5777 26.2817 14.5777 26.2801 14.5769 26.277C14.5822 26.2786 14.5784 26.2762 14.5807 26.2809C14.5822 26.2786 14.5845 26.2801 14.5822 26.2762C14.5868 26.2754 14.5845 26.2825 14.586 26.2856C14.5883 26.2825 14.5928 26.2872 14.5951 26.2832L14.5921 26.2793C14.5921 26.2825 14.5898 26.2809 14.5891 26.2825C14.5868 26.2817 14.5853 26.2762 14.5875 26.277C14.5868 26.2778 14.5883 26.2825 14.5891 26.2801C14.5906 26.2778 14.5906 26.2762 14.5898 26.2746C14.5913 26.2746 14.5982 26.2739 14.5966 26.2707C14.5928 26.2684 14.5928 26.2739 14.5898 26.2723C14.5898 26.2676 14.5936 26.2699 14.5921 26.266C14.5959 26.2723 14.6065 26.2653 14.6027 26.259C14.6065 26.2598 14.6073 26.2637 14.6088 26.2606L14.6072 26.2567C14.6103 26.2574 14.6088 26.2543 14.6088 26.2527C14.611 26.2527 14.6141 26.2535 14.6163 26.2527C14.6133 26.2582 14.611 26.2645 14.6126 26.2707C14.6156 26.27 14.6133 26.2676 14.6126 26.2653C14.6171 26.2676 14.6171 26.2621 14.6209 26.2637C14.6209 26.266 14.6232 26.2668 14.6262 26.2676C14.6262 26.2613 14.6323 26.2629 14.633 26.2621C14.633 26.2598 14.6338 26.2574 14.6323 26.2567C14.6315 26.2567 14.6285 26.2629 14.6277 26.2582C14.6292 26.2574 14.6315 26.252 14.63 26.252C14.63 26.2543 14.6247 26.2574 14.6239 26.2535C14.6239 26.2457 14.63 26.248 14.6285 26.2418C14.6307 26.2418 14.6307 26.2441 14.6315 26.2449C14.6338 26.2426 14.6406 26.2402 14.6383 26.2355C14.6459 26.2355 14.6436 26.2293 14.6474 26.2254C14.6474 26.2254 14.6542 26.2261 14.6505 26.2222C14.6542 26.2215 14.6535 26.2246 14.6565 26.2238C14.6542 26.2183 14.6626 26.216 14.6641 26.2105C14.6641 26.2128 14.6656 26.2136 14.6687 26.2128C14.6732 26.2105 14.6679 26.2089 14.6702 26.2074C14.6709 26.2089 14.6717 26.2097 14.674 26.2097C14.6724 26.205 14.6777 26.2089 14.6777 26.2058C14.6777 26.2027 14.674 26.2042 14.674 26.2019C14.6793 26.1988 14.6793 26.1902 14.6853 26.1878C14.6853 26.1902 14.6861 26.1909 14.6876 26.1917C14.6876 26.1855 14.6899 26.1831 14.6937 26.1862C14.6952 26.1808 14.702 26.1675 14.7103 26.1675C14.7111 26.1612 14.7164 26.1597 14.7187 26.155C14.7172 26.1518 14.7202 26.1495 14.7194 26.1448C14.724 26.1448 14.7247 26.1456 14.7278 26.1409C14.7308 26.1432 14.7247 26.1479 14.7225 26.1518C14.7278 26.151 14.727 26.1573 14.7278 26.1612C14.7331 26.1573 14.7369 26.1534 14.7354 26.1479C14.7422 26.1424 14.7505 26.1393 14.752 26.1276C14.7566 26.1245 14.7558 26.1331 14.7581 26.1276L14.7573 26.1245C14.7687 26.1198 14.7824 26.0979 14.7983 26.0892C14.7907 26.0908 14.7907 26.0916 14.7846 26.0916C14.7846 26.0963 14.7786 26.0939 14.7786 26.0986C14.7801 26.0986 14.7816 26.0955 14.7816 26.0979C14.771 26.1088 14.7642 26.1096 14.7566 26.1205C14.7581 26.1166 14.7626 26.1112 14.7551 26.1143C14.7573 26.108 14.7604 26.1065 14.7642 26.1072C14.7657 26.1033 14.7755 26.0892 14.7839 26.0846C14.7831 26.0877 14.7816 26.0908 14.7854 26.0892C14.7899 26.0885 14.7907 26.0822 14.7937 26.0799L14.7884 26.0806C14.7998 26.0713 14.8104 26.0611 14.8218 26.0501C14.8271 26.0486 14.8248 26.0525 14.8294 26.0509C14.8301 26.0486 14.8309 26.0462 14.8324 26.0439C14.8369 26.0431 14.8347 26.0462 14.8362 26.047C14.8385 26.0439 14.8422 26.0454 14.8438 26.0408C14.8415 26.04 14.8385 26.0407 14.8392 26.0392C14.8445 26.0376 14.8476 26.0329 14.8529 26.0321C14.8513 26.0345 14.8491 26.0376 14.8536 26.0368C14.8551 26.0329 14.8589 26.0337 14.8604 26.029C14.8574 26.029 14.8566 26.0275 14.8574 26.0259C14.8688 26.0275 14.8733 26.0157 14.8824 26.0126C14.8847 26.0134 14.8786 26.0188 14.8817 26.0188C14.8999 26.0126 14.9279 25.9907 14.956 25.9923C14.9582 25.9899 14.9522 25.9907 14.9567 25.9876C14.9658 25.9844 14.956 25.9899 14.9628 25.9899C14.9711 25.9868 14.9605 25.9876 14.9666 25.9836C14.9719 25.9836 14.9681 25.9868 14.9741 25.9868C14.981 25.9813 14.9893 25.9844 14.9961 25.9797C14.9931 25.979 14.9923 25.9774 14.9939 25.9758C14.9961 25.9758 14.9984 25.9743 15.0007 25.9727L15.0076 25.9733L15.0064 25.9737L15.003 25.9743C15.0019 25.9769 15.0073 25.977 15.0119 25.9762L15.0143 25.9755C15.015 25.9761 15.015 25.9763 15.0151 25.9766L15.0158 25.9774C15.0287 25.975 15.0416 25.9735 15.0545 25.9727C15.0469 25.9703 15.0393 25.9703 15.0318 25.9727C15.0355 25.9703 15.0325 25.9696 15.0333 25.968C15.0462 25.9711 15.0416 25.9657 15.0507 25.9657C15.0537 25.968 15.0613 25.9711 15.0681 25.9711C15.0659 25.9672 15.0628 25.9672 15.0613 25.9641C15.0666 25.9664 15.0727 25.9641 15.0772 25.9688C15.0788 25.9657 15.0909 25.9649 15.0916 25.9696C15.1053 25.9649 15.1189 25.9672 15.1318 25.9711C15.1402 25.9711 15.1402 25.9657 15.1455 25.968C15.1409 25.9719 15.1523 25.9703 15.1538 25.9766C15.1682 25.9711 15.1849 25.9813 15.194 25.9766C15.1978 25.9813 15.2038 25.979 15.2084 25.9813C15.1978 25.9883 15.2387 25.9954 15.2478 25.9969C15.2478 26.0032 15.2357 25.9954 15.2342 25.9977C15.2379 26.0016 15.2417 26.0055 15.2455 26.0079C15.244 26.0016 15.2478 26.0079 15.2516 26.0095C15.2523 26.0055 15.2539 26.0055 15.2577 26.0048C15.2622 26.0102 15.2523 26.0071 15.2539 26.011C15.2584 26.0165 15.2652 26.0196 15.2607 26.0243C15.266 26.0228 15.2675 26.0196 15.2736 26.0188C15.2743 26.0243 15.2842 26.029 15.2865 26.0337C15.2895 26.0314 15.2812 26.022 15.2827 26.0188C15.294 26.0228 15.2887 26.0345 15.3047 26.0368C15.2925 26.0267 15.2986 26.0228 15.2849 26.0126C15.291 26.0157 15.3039 26.0228 15.3031 26.0259C15.3016 26.0243 15.3009 26.0235 15.2986 26.0235C15.3009 26.0314 15.3062 26.0361 15.3115 26.04C15.3084 26.0407 15.3054 26.0384 15.3077 26.0454C15.3107 26.047 15.3122 26.0509 15.3168 26.0509C15.316 26.0478 15.3092 26.0454 15.316 26.0462C15.3213 26.0517 15.3236 26.0564 15.3312 26.054C15.3327 26.0627 15.3463 26.0713 15.3471 26.0658L15.3494 26.072C15.3539 26.0705 15.3554 26.0744 15.3607 26.0775C15.3611 26.0786 15.3611 26.0795 15.3611 26.0802L15.3609 26.0818C15.3632 26.0844 15.3662 26.0864 15.3645 26.0877L15.3629 26.0882C15.3681 26.0902 15.3737 26.092 15.3781 26.0961L15.382 26.101C15.3774 26.101 15.3714 26.0924 15.3698 26.0963C15.3744 26.0994 15.3729 26.1033 15.3752 26.1049C15.385 26.1088 15.3865 26.1119 15.3941 26.1112C15.398 26.1192 15.4064 26.1232 15.4134 26.1283L15.4181 26.1324L15.4163 26.1326C15.4141 26.1328 15.4134 26.1325 15.411 26.131L15.4077 26.1291L15.4085 26.1338C15.4131 26.1377 15.4176 26.1417 15.4244 26.1432L15.424 26.143L15.4244 26.144C15.4261 26.1434 15.4274 26.1433 15.4292 26.1446L15.4312 26.1464C15.435 26.1526 15.4259 26.151 15.432 26.1573C15.4358 26.1597 15.432 26.1518 15.4373 26.155C15.4387 26.1564 15.4399 26.1578 15.441 26.1593L15.4416 26.1602L15.4426 26.1597C15.443 26.1616 15.4455 26.1645 15.4473 26.1672L15.4476 26.1679L15.4511 26.1709L15.4555 26.173C15.4585 26.18 15.4502 26.1714 15.451 26.1761C15.4519 26.1776 15.4529 26.1792 15.4537 26.1803L15.4544 26.1813C15.4545 26.1813 15.456 26.1822 15.4576 26.1822L15.4601 26.1816C15.4616 26.1847 15.4623 26.1886 15.4676 26.1894C15.4676 26.1917 15.4654 26.1925 15.4661 26.1964C15.4722 26.1949 15.4684 26.2027 15.4737 26.2019C15.4745 26.2003 15.4775 26.1995 15.4798 26.1988C15.4798 26.2042 15.4722 26.2011 15.4729 26.2074C15.4752 26.2074 15.4752 26.2097 15.4767 26.2105C15.4775 26.2081 15.4782 26.2066 15.4813 26.2066C15.482 26.2105 15.4775 26.2097 15.4805 26.2128C15.4851 26.2128 15.4851 26.2097 15.4866 26.2066L15.4866 26.2085C15.4871 26.2092 15.4886 26.207 15.4896 26.2074L15.4904 26.2089C15.4881 26.2097 15.4904 26.2105 15.4904 26.2128L15.4937 26.2132C15.4974 26.2144 15.4983 26.218 15.5025 26.2136C15.5002 26.2168 15.5025 26.2191 15.501 26.2214C15.4995 26.2207 15.4957 26.2214 15.4949 26.2238C15.4972 26.2261 15.5017 26.234 15.5055 26.2301C15.5017 26.2301 15.5002 26.2246 15.5025 26.2222C15.5086 26.2238 15.5116 26.2285 15.5192 26.2277C15.5207 26.234 15.529 26.2316 15.5245 26.2371C15.5298 26.2371 15.5321 26.241 15.5359 26.2394C15.5321 26.2441 15.5419 26.2418 15.5419 26.2465C15.5381 26.248 15.5381 26.2426 15.5343 26.2441C15.5366 26.2527 15.529 26.2426 15.5275 26.248C15.529 26.2512 15.5321 26.2512 15.5321 26.2535C15.5381 26.2512 15.545 26.2535 15.551 26.252C15.551 26.2551 15.5465 26.2551 15.5465 26.2582C15.5434 26.2598 15.5396 26.2543 15.5389 26.2582C15.5442 26.259 15.5495 26.2606 15.551 26.2668C15.5556 26.2668 15.5609 26.2645 15.5616 26.2707C15.5669 26.2731 15.5722 26.2629 15.5753 26.27C15.5715 26.2692 15.5707 26.2723 15.5685 26.2746C15.576 26.2746 15.5851 26.2809 15.5889 26.2762C15.5882 26.2707 15.5866 26.2793 15.5859 26.2739L15.5904 26.2715C15.5897 26.2762 15.5935 26.277 15.5965 26.2786C15.5995 26.2731 15.6026 26.2778 15.6064 26.2746L15.6076 26.277L15.6087 26.2771C15.6093 26.2772 15.6099 26.2775 15.6104 26.2779L15.6106 26.2782C15.6111 26.2755 15.6079 26.2733 15.6086 26.2715L15.6109 26.27C15.6094 26.2754 15.617 26.2832 15.6215 26.2817C15.6208 26.2793 15.6208 26.2786 15.6215 26.277L15.6222 26.2795C15.6223 26.2801 15.6222 26.2807 15.6223 26.2813L15.623 26.2832C15.6283 26.2825 15.6276 26.2762 15.6306 26.2817C15.6314 26.2793 15.6299 26.277 15.6314 26.2754L15.6321 26.2775C15.6322 26.2782 15.6321 26.2788 15.6322 26.2793L15.6329 26.2809C15.6359 26.2778 15.639 26.2762 15.6412 26.2801C15.6435 26.2778 15.6397 26.2746 15.642 26.2731C15.6435 26.2746 15.645 26.2723 15.6465 26.2723C15.645 26.2746 15.645 26.2762 15.6458 26.2778C15.6549 26.2715 15.6609 26.2739 15.6708 26.2692C15.67 26.2684 15.6693 26.2676 15.67 26.266C15.6723 26.2692 15.6723 26.2653 15.6738 26.266C15.6738 26.2676 15.6738 26.2692 15.6753 26.27C15.6776 26.2668 15.6806 26.2692 15.6822 26.2645C15.6837 26.266 15.6837 26.2676 15.6852 26.2684C15.6867 26.2621 15.692 26.2645 15.6943 26.2598L15.6928 26.2574C15.692 26.2598 15.6897 26.2598 15.6875 26.2598C15.689 26.2574 15.6913 26.2543 15.6897 26.2496C15.6943 26.2504 15.6897 26.2559 15.692 26.2567C15.6988 26.2496 15.7041 26.2332 15.714 26.2285C15.7125 26.2246 15.714 26.2254 15.7163 26.223C15.7208 26.2277 15.7117 26.2332 15.717 26.2363C15.7223 26.2316 15.7269 26.2254 15.7307 26.2168C15.7352 26.216 15.7345 26.2191 15.7307 26.2175C15.7329 26.2183 15.7284 26.2254 15.7314 26.2285C15.7352 26.2246 15.7383 26.216 15.7367 26.2136C15.7375 26.2152 15.739 26.2152 15.7405 26.2152C15.7436 26.2019 15.7511 26.1925 15.7489 26.1753V26.1765L15.7476 26.1773L15.7466 26.1761C15.7489 26.1729 15.7481 26.1745 15.7527 26.1745L15.7552 26.1717L15.7545 26.1733C15.754 26.174 15.7534 26.1747 15.7528 26.1752L15.7517 26.1762L15.7534 26.1777L15.7549 26.18C15.7527 26.1808 15.7519 26.1784 15.7511 26.18C15.7504 26.1823 15.7504 26.1831 15.7527 26.1839C15.7549 26.1816 15.758 26.1808 15.7587 26.1776C15.7572 26.1776 15.7572 26.1753 15.7564 26.1745C15.7564 26.1722 15.7625 26.1745 15.7633 26.1722C15.7625 26.1714 15.7633 26.169 15.7618 26.169C15.7587 26.173 15.7602 26.1722 15.7557 26.1706L15.7569 26.1679C15.7575 26.1655 15.7578 26.1628 15.7592 26.1593L15.7625 26.1534C15.7625 26.1597 15.7602 26.1706 15.7678 26.169C15.7754 26.1643 15.7746 26.151 15.7807 26.1448C15.7883 26.1432 15.7898 26.1362 15.7944 26.1315C15.7913 26.1291 15.7997 26.1119 15.8034 26.1135C15.8004 26.1174 15.7959 26.1252 15.8027 26.1221C15.8034 26.1166 15.8065 26.1143 15.8088 26.1104C15.8065 26.1104 15.8088 26.1057 15.805 26.108C15.8125 26.0947 15.8103 26.0994 15.8171 26.0853C15.833 26.0822 15.8285 26.0673 15.8459 26.0642C15.8474 26.0587 15.852 26.0572 15.8535 26.0509L15.8548 26.0555C15.8554 26.0585 15.8554 26.0616 15.8551 26.065L15.8542 26.0705C15.8702 26.0556 15.8883 26.0408 15.8914 26.0243C15.9073 26.0157 15.9308 26.0016 15.9384 25.986C15.9156 25.9883 15.8982 26.022 15.883 26.0243C15.8868 26.0228 15.8846 26.0314 15.88 26.0329C15.88 26.0314 15.8793 26.0298 15.8762 26.0306C15.8694 26.0392 15.8724 26.0517 15.8588 26.0603C15.8603 26.0509 15.8664 26.0314 15.8785 26.0204C15.8815 26.0204 15.8717 26.0314 15.8793 26.0282C15.8861 26.0165 15.8959 26.0102 15.899 25.9985C15.9096 25.9954 15.9194 25.9891 15.93 25.9852C15.9376 25.9727 15.9482 25.9703 15.9475 25.961C15.9551 25.9594 15.9437 25.968 15.9528 25.9657C15.9649 25.961 15.9581 25.9625 15.9626 25.9664L15.977 25.9531C15.9839 25.9531 15.9899 25.9508 15.996 25.9469C15.9914 25.9445 15.9884 25.9492 15.9846 25.9492C15.9914 25.9445 15.9922 25.9414 15.9907 25.9398C15.9975 25.9383 16.0036 25.9328 16.0104 25.9351C16.0074 25.9391 16.0036 25.9422 16.0119 25.9422C16.0187 25.9351 16.0263 25.9273 16.0347 25.9203C16.0445 25.9258 16.0528 25.9085 16.0627 25.914C16.0619 25.9179 16.0544 25.9179 16.0574 25.9211C16.0521 25.9195 16.0468 25.9242 16.0415 25.925C16.0437 25.9258 16.0422 25.9273 16.0475 25.9281L16.0589 25.9211C16.0627 25.9273 16.0718 25.9195 16.0809 25.9211C16.065 25.9281 16.0437 25.9281 16.0407 25.9414C16.0566 25.9406 16.0862 25.9195 16.0945 25.932C16.0991 25.932 16.1036 25.9289 16.1082 25.9265C16.1059 25.9258 16.1021 25.925 16.1044 25.9234C16.1332 25.9226 16.1612 25.9172 16.1893 25.9218C16.1878 25.9203 16.1923 25.9195 16.1923 25.9179C16.1969 25.9226 16.2029 25.9187 16.2082 25.9218C16.2022 25.9242 16.1938 25.9211 16.1976 25.9258C16.2082 25.9281 16.2189 25.9305 16.2302 25.9305C16.2355 25.9336 16.231 25.9344 16.2355 25.9367C16.2378 25.9359 16.2378 25.9344 16.2424 25.9336C16.2461 25.9367 16.2431 25.9383 16.2492 25.9414C16.2568 25.9398 16.2568 25.9414 16.2613 25.9391C16.2636 25.9437 16.259 25.9461 16.2613 25.95C16.2681 25.9508 16.2757 25.95 16.281 25.9547L16.2772 25.9555C16.278 25.9563 16.278 25.957 16.2765 25.957L16.2808 25.958C16.2832 25.9585 16.2855 25.9589 16.2879 25.959L16.2954 25.9586C16.2954 25.9633 16.3038 25.9625 16.303 25.9664C16.3038 25.9649 16.3091 25.9641 16.3121 25.9672C16.3045 25.968 16.303 25.9711 16.3075 25.9766C16.3007 25.9758 16.2962 25.975 16.2878 25.9735L16.2892 25.9737L16.29 25.9731C16.2918 25.9705 16.2913 25.9673 16.2871 25.9641L16.2833 25.9617C16.284 25.9657 16.2886 25.9703 16.2795 25.9711C16.278 25.9657 16.2772 25.9657 16.2734 25.9602C16.2689 25.961 16.2643 25.9617 16.2621 25.957C16.2515 25.9602 16.2507 25.961 16.2393 25.961C16.2386 25.9641 16.2484 25.9657 16.2537 25.9657C16.2552 25.9688 16.2439 25.9649 16.2484 25.9696C16.2598 25.975 16.2734 25.968 16.2825 25.9774C16.2848 25.9768 16.2867 25.9759 16.2882 25.9748C16.2882 25.977 16.2849 25.9773 16.2864 25.9794L16.2886 25.9813C16.2985 25.9774 16.3083 25.9805 16.3197 25.9836C16.3204 25.9805 16.3265 25.9758 16.3341 25.9829C16.3295 25.9829 16.3265 25.9805 16.322 25.9821C16.3212 25.9852 16.3265 25.9899 16.328 25.9907C16.3303 25.9907 16.331 25.9852 16.3364 25.9891C16.3341 25.9891 16.3333 25.9938 16.3379 25.9938C16.3432 25.9938 16.3394 25.9891 16.3485 25.9907C16.3515 25.9938 16.3485 25.9985 16.353 25.9993C16.3523 25.9962 16.3606 25.993 16.3659 25.9962C16.3674 26.0001 16.3606 25.9969 16.3606 25.9993C16.3674 25.9993 16.3621 26.0055 16.3667 26.0048C16.3659 25.9962 16.3856 26.0032 16.3924 26.0095C16.3947 26.0087 16.3962 26.0063 16.3962 26.004C16.4 26.0079 16.4046 26.0095 16.4046 26.0055C16.4069 26.0095 16.4122 26.0095 16.4144 26.0134C16.4076 26.0149 16.3932 26.0118 16.3849 26.0079C16.3856 26.0095 16.3841 26.0095 16.3849 26.011C16.4106 26.0181 16.4235 26.0282 16.4501 26.0353C16.4508 26.0392 16.4546 26.0392 16.4554 26.0431C16.4448 26.0431 16.4304 26.0345 16.4197 26.0384L16.4213 26.0415C16.4387 26.0462 16.4599 26.0462 16.469 26.0627C16.4827 26.0681 16.5031 26.0767 16.5062 26.0877C16.5077 26.0861 16.5115 26.0877 16.5137 26.0908C16.5092 26.0892 16.5062 26.0892 16.5084 26.0939C16.5122 26.0963 16.5145 26.0994 16.5153 26.1041C16.519 26.1057 16.5213 26.1088 16.5213 26.1041C16.5198 26.1041 16.5168 26.1033 16.516 26.1018C16.5206 26.0986 16.5281 26.1065 16.5357 26.1072C16.5319 26.1182 16.5471 26.1299 16.5547 26.1432C16.5494 26.1448 16.5547 26.1534 16.5592 26.162C16.5471 26.1659 16.5251 26.1557 16.5039 26.1448C16.5062 26.1409 16.5099 26.1456 16.5115 26.1432C16.5069 26.1354 16.4993 26.1393 16.4925 26.1307C16.4804 26.1401 16.4531 26.1096 16.4394 26.1088C16.4288 26.0939 16.4053 26.0861 16.3955 26.0838C16.3985 26.0869 16.4099 26.0892 16.4061 26.0932C16.3955 26.0885 16.3879 26.0814 16.378 26.0822C16.3705 26.076 16.3538 26.0666 16.3492 26.0713C16.3432 26.0681 16.3515 26.0705 16.3477 26.0658C16.3401 26.0634 16.3303 26.0666 16.325 26.0603C16.328 26.0595 16.3348 26.0666 16.3348 26.0627C16.3288 26.0587 16.3174 26.0517 16.3189 26.0595C16.3045 26.0486 16.2871 26.0447 16.2689 26.0415C16.2636 26.047 16.2454 26.0478 16.234 26.0462C16.234 26.0473 16.234 26.0484 16.2341 26.0496L16.2344 26.0516L16.2363 26.0533L16.2352 26.0542L16.2363 26.0572C16.2383 26.0572 16.2403 26.0575 16.2424 26.0573L16.2454 26.0564C16.2431 26.0533 16.2439 26.0509 16.2477 26.0501C16.2568 26.054 16.2651 26.058 16.275 26.058C16.2772 26.0603 16.275 26.0611 16.2772 26.0634C16.2818 26.0603 16.2833 26.0642 16.2894 26.0642C16.2894 26.0627 16.2878 26.0611 16.2894 26.0611C16.2909 26.0627 16.2924 26.065 16.2947 26.0658C16.2886 26.0658 16.2742 26.065 16.2757 26.0705C16.2886 26.0728 16.2962 26.0689 16.3045 26.0759C16.3068 26.0799 16.2992 26.0783 16.303 26.0822C16.3083 26.0861 16.3174 26.0853 16.322 26.0916C16.3182 26.0924 16.3144 26.0924 16.3159 26.0955C16.3204 26.1002 16.328 26.0979 16.3303 26.1057C16.3318 26.1057 16.331 26.1041 16.3341 26.1041C16.3379 26.1112 16.3439 26.1151 16.3515 26.1174C16.3545 26.126 16.3621 26.1268 16.3659 26.1338C16.3356 26.126 16.3098 26.1088 16.2772 26.108C16.2696 26.1025 16.2583 26.1025 16.2477 26.1041C16.2416 26.0971 16.2264 26.0947 16.2196 26.1025C16.228 26.101 16.237 26.0979 16.2431 26.1025C16.231 26.1018 16.2166 26.1065 16.206 26.1018C16.2075 26.1065 16.1984 26.1065 16.1938 26.1057C16.1976 26.1033 16.2067 26.1018 16.2067 26.0986C16.1969 26.0986 16.1931 26.1065 16.1825 26.1072C16.1802 26.1057 16.1817 26.1041 16.1794 26.1025C16.1749 26.1033 16.1643 26.1072 16.1673 26.1018L16.1635 26.1025C16.1628 26.1057 16.1575 26.108 16.1575 26.1112C16.159 26.1119 16.1605 26.1112 16.162 26.1112C16.1658 26.1096 16.1628 26.108 16.1673 26.1065C16.1696 26.1119 16.1734 26.1041 16.1756 26.1065C16.1711 26.1119 16.1703 26.1088 16.1643 26.1119C16.1635 26.1151 16.1688 26.1174 16.1719 26.1166C16.1681 26.1198 16.1628 26.1221 16.1658 26.1252C16.1726 26.1198 16.1878 26.1096 16.1916 26.1182C16.1946 26.1182 16.1984 26.1174 16.2022 26.1182C16.2022 26.1166 16.2014 26.1151 16.2022 26.1135C16.2052 26.1158 16.2082 26.1182 16.2113 26.1174C16.2461 26.1127 16.284 26.1268 16.3113 26.1377C16.3 26.1401 16.2969 26.1393 16.2886 26.1401C16.2962 26.1432 16.303 26.1456 16.3106 26.1479C16.3129 26.1503 16.3129 26.1557 16.3159 26.1557C16.3204 26.151 16.325 26.1636 16.3333 26.1612C16.3341 26.1659 16.3379 26.1643 16.3424 26.169C16.3386 26.169 16.3371 26.1659 16.3326 26.1667C16.3333 26.1698 16.3318 26.1722 16.3356 26.1745C16.3204 26.1769 16.306 26.173 16.2886 26.173C16.278 26.173 16.2552 26.1722 16.2454 26.169C16.2295 26.1745 16.209 26.1698 16.1938 26.1698C16.181 26.1753 16.1681 26.1737 16.1544 26.1769C16.1552 26.1761 16.1544 26.1753 16.1544 26.1737C16.1499 26.1769 16.14 26.1753 16.1415 26.1808L16.1362 26.1753C16.1218 26.1808 16.1082 26.1909 16.1006 26.2042C16.0953 26.205 16.0915 26.2082 16.0915 26.2144C16.0771 26.2097 16.0589 26.2168 16.0528 26.2293C16.0551 26.2301 16.0551 26.2254 16.0574 26.2269C16.0574 26.2316 16.0551 26.2324 16.0566 26.2371C16.0544 26.2387 16.0513 26.2379 16.0513 26.2426C16.0475 26.241 16.0445 26.241 16.0422 26.2434C16.0445 26.2449 16.0445 26.2488 16.0437 26.252C16.0263 26.2574 16.0112 26.2692 16.0043 26.2903C15.9967 26.2903 16.0005 26.3012 15.9967 26.3044C16.0051 26.3106 15.9892 26.3216 16.0005 26.3247C15.9945 26.3271 15.9892 26.3317 15.9854 26.3364C15.9816 26.3419 15.974 26.3529 15.9695 26.3615C15.9596 26.3802 15.9497 26.3982 15.9391 26.4084C15.9384 26.4194 15.9225 26.4381 15.9111 26.4467C15.8974 26.4702 15.8793 26.4882 15.855 26.5015C15.8391 26.5187 15.8285 26.5265 15.8118 26.5406C15.8072 26.5414 15.808 26.5359 15.8019 26.5398C15.8042 26.5469 15.7807 26.5563 15.7701 26.5609C15.7724 26.5586 15.7769 26.5555 15.7746 26.5547C15.7587 26.5703 15.7223 26.5813 15.6988 26.5797C15.7049 26.5774 15.7329 26.5641 15.7337 26.5727C15.7443 26.5696 15.7534 26.5602 15.7633 26.5547C15.7602 26.5531 15.7572 26.5555 15.7542 26.5547C15.7602 26.5492 15.7754 26.5476 15.7746 26.5422C15.764 26.5484 15.7451 26.5531 15.7405 26.5625C15.711 26.557 15.6753 26.5844 15.642 26.575C15.6344 26.5789 15.6245 26.5758 15.6276 26.5805C15.6238 26.5766 15.62 26.5797 15.6162 26.5782C15.6185 26.5774 15.6223 26.5766 15.6208 26.575C15.6064 26.5797 15.5942 26.5742 15.5806 26.5758C15.5829 26.5766 15.5957 26.5789 15.5866 26.5805C15.5753 26.5727 15.5745 26.5789 15.5685 26.5766C15.5775 26.5758 15.5639 26.5742 15.5624 26.5703C15.548 26.5703 15.5389 26.5672 15.5283 26.5688C15.5359 26.5727 15.5275 26.5766 15.5306 26.5735L15.5237 26.5664C15.5033 26.5625 15.4813 26.5578 15.4608 26.5523L15.4716 26.555L15.4725 26.5545L15.4722 26.5523C15.4631 26.5476 15.4517 26.5453 15.4456 26.5445C15.4479 26.5445 15.4494 26.5437 15.4472 26.5414C15.4403 26.543 15.4373 26.5375 15.432 26.5367C15.432 26.5383 15.4335 26.5398 15.432 26.5398C15.4252 26.532 15.4214 26.5375 15.4168 26.5344C15.4191 26.5336 15.4191 26.532 15.4176 26.5297C15.4002 26.5187 15.3842 26.507 15.3683 26.5031C15.3653 26.4992 15.363 26.4929 15.3562 26.4952C15.3547 26.4921 15.357 26.4921 15.3554 26.489C15.3494 26.489 15.3342 26.4796 15.3297 26.4702L15.3228 26.4686C15.3031 26.4467 15.2819 26.4287 15.2607 26.4076L15.244 26.3912L15.2395 26.3865L15.2311 26.3771L15.2266 26.3716C15.2228 26.3669 15.2175 26.3615 15.2137 26.3552C15.2069 26.3529 15.2031 26.3474 15.1993 26.3427H15.1947C15.1932 26.3372 15.1864 26.3341 15.1834 26.3341C15.1864 26.3294 15.1811 26.3317 15.1781 26.331C15.1674 26.3161 15.1493 26.3138 15.1386 26.3036L15.1356 26.3052C15.1121 26.2919 15.0932 26.2911 15.0803 26.2926C15.0734 26.2919 15.0681 26.2973 15.0621 26.2973C15.056 26.3036 15.0499 26.302 15.0416 26.3106C15.034 26.3177 15.0257 26.3216 15.0158 26.3333C15.006 26.3427 14.9961 26.3513 14.9863 26.3662C14.9734 26.3802 14.9264 26.4428 14.8786 26.4882C14.8809 26.4905 14.8756 26.496 14.871 26.4984C14.8718 26.4952 14.8756 26.4929 14.8733 26.4929C14.8627 26.4976 14.8695 26.4992 14.8642 26.5046L14.8566 26.5062C14.843 26.5203 14.8309 26.5312 14.818 26.5422C14.8043 26.5523 14.7899 26.5609 14.771 26.5742C14.7725 26.5727 14.771 26.5703 14.7687 26.5727L14.7634 26.5797C14.7316 26.6001 14.6884 26.6126 14.6497 26.6267C14.608 26.6353 14.5648 26.6446 14.5223 26.64C14.4829 26.6423 14.4465 26.6353 14.4117 26.6235C14.3973 26.6243 14.3882 26.6141 14.3745 26.6141C14.3571 26.6024 14.3336 26.6016 14.3184 26.5875C14.2737 26.5727 14.2411 26.5422 14.2047 26.5203L14.2017 26.5132C14.1721 26.496 14.1494 26.4639 14.1259 26.4483C14.1221 26.4358 14.1062 26.4303 14.1062 26.4209L14.0986 26.417C14.0963 26.4108 14.0941 26.4084 14.088 26.4006C14.0834 26.3951 14.0834 26.3959 14.0842 26.3967C14.0842 26.3975 14.0827 26.3959 14.0819 26.3951C14.0759 26.3873 14.0652 26.3685 14.0584 26.3693C14.0402 26.3466 14.0167 26.3317 13.9993 26.3153C13.9985 26.3153 13.9985 26.3161 13.9978 26.3169C13.9887 26.3075 13.9788 26.2989 13.969 26.2997L13.9682 26.2934C13.9637 26.2958 13.9614 26.2934 13.9599 26.2911L13.9591 26.2942C13.9568 26.2942 13.9568 26.2872 13.9546 26.2887C13.9485 26.2934 13.9447 26.2864 13.9402 26.2856C13.9409 26.2856 13.9409 26.2872 13.9409 26.2895C13.9349 26.2825 13.9296 26.2879 13.922 26.2895C13.9205 26.2887 13.9205 26.2864 13.9182 26.2856C13.9197 26.2919 13.9159 26.2887 13.9167 26.2942C13.9114 26.2903 13.9114 26.2965 13.9061 26.2934C13.9053 26.2981 13.8939 26.3044 13.8886 26.3098C13.8826 26.3052 13.8795 26.3177 13.8719 26.3192C13.8719 26.3224 13.875 26.3216 13.875 26.3239C13.8727 26.3255 13.8674 26.3247 13.8689 26.3317C13.8598 26.3357 13.8553 26.3435 13.85 26.3505C13.8454 26.3521 13.8484 26.3443 13.8431 26.3466C13.8424 26.3544 13.8356 26.3669 13.8234 26.3834C13.8204 26.381 13.8257 26.3771 13.8265 26.3716C13.8212 26.3756 13.8242 26.3685 13.8189 26.3716C13.8166 26.3802 13.8121 26.3912 13.8052 26.3943L13.8067 26.3924C13.8085 26.39 13.811 26.3865 13.8109 26.385L13.8098 26.3842C13.8037 26.392 13.7969 26.399 13.7939 26.4092C13.7901 26.4115 13.7908 26.4076 13.7863 26.4108C13.7825 26.4186 13.7772 26.4209 13.7787 26.4287C13.7666 26.4342 13.759 26.4483 13.7491 26.4577C13.7469 26.4624 13.7598 26.453 13.7544 26.4608C13.7461 26.4663 13.7499 26.4546 13.7431 26.4624C13.7454 26.4639 13.7446 26.4726 13.737 26.4741C13.7378 26.471 13.74 26.4671 13.7378 26.4671C13.7203 26.4812 13.7044 26.4968 13.6832 26.5117L13.6921 26.5049L13.6925 26.5046L13.6915 26.5038C13.6786 26.5109 13.6514 26.525 13.6514 26.532C13.6476 26.532 13.646 26.5344 13.643 26.5359C13.6445 26.5336 13.6476 26.5304 13.643 26.5312C13.6407 26.5375 13.6347 26.5351 13.6316 26.5414C13.6354 26.5406 13.6392 26.539 13.6423 26.5375C13.6339 26.5484 13.6279 26.5367 13.6188 26.5461L13.6149 26.546C13.6121 26.5466 13.6097 26.5482 13.607 26.5492L13.6028 26.55C13.6036 26.5461 13.6135 26.5445 13.6089 26.5437C13.5937 26.5492 13.5786 26.5539 13.5634 26.5633C13.5642 26.5617 13.5649 26.5602 13.5642 26.5586C13.5604 26.5617 13.5551 26.5602 13.5513 26.5625C13.549 26.5641 13.5513 26.5656 13.5498 26.5672C13.5422 26.5664 13.5354 26.5672 13.5286 26.5688C13.5316 26.5688 13.5301 26.5742 13.5248 26.5727C13.5293 26.5641 13.5104 26.5735 13.5035 26.5711C13.5013 26.5696 13.5126 26.5656 13.5088 26.5641C13.5013 26.5703 13.4929 26.568 13.4846 26.5696C13.4929 26.5735 13.4732 26.5742 13.4694 26.5727C13.4762 26.5711 13.4816 26.5688 13.4755 26.5649C13.4717 26.5656 13.4679 26.5703 13.4641 26.568C13.4717 26.5602 13.4361 26.5602 13.4247 26.5586C13.4262 26.5594 13.4277 26.5609 13.4239 26.5617C13.4171 26.557 13.4194 26.5617 13.4133 26.5602L13.4057 26.5539C13.4148 26.5531 13.4088 26.5492 13.4111 26.5476C13.4217 26.5523 13.4232 26.5531 13.4353 26.5508C13.4436 26.5578 13.4436 26.5531 13.4558 26.5594C13.452 26.5563 13.4626 26.5539 13.4687 26.5555C13.4656 26.557 13.4611 26.5578 13.4626 26.5594C13.4664 26.5578 13.4656 26.5649 13.4732 26.5617C13.4762 26.5586 13.4725 26.5555 13.4793 26.5523C13.4853 26.5555 13.4694 26.5586 13.4808 26.5617C13.4906 26.5563 13.5005 26.5649 13.5104 26.557C13.5073 26.5547 13.4997 26.5531 13.5051 26.55C13.5111 26.5539 13.5126 26.5531 13.5126 26.5578C13.5308 26.5469 13.5498 26.5508 13.5672 26.5445C13.5665 26.5437 13.5665 26.543 13.5687 26.5414C13.5649 26.5414 13.5619 26.5453 13.5581 26.5437C13.5672 26.5367 13.571 26.5445 13.5778 26.5414C13.5778 26.5383 13.5778 26.5351 13.5854 26.5336C13.5755 26.5414 13.5884 26.5351 13.5937 26.5375C13.6044 26.5297 13.6415 26.5195 13.6423 26.5062C13.6491 26.5038 13.6453 26.5085 13.6476 26.5093C13.6574 26.5023 13.6688 26.4976 13.6771 26.4882C13.6749 26.4921 13.6741 26.4945 13.6771 26.4945C13.6809 26.4913 13.6847 26.489 13.687 26.4835C13.6839 26.4835 13.6794 26.4851 13.6802 26.4827C13.6847 26.4819 13.687 26.4765 13.6923 26.4765C13.6885 26.4819 13.69 26.4835 13.6961 26.4819C13.7029 26.4679 13.7226 26.4663 13.7226 26.453C13.7256 26.4506 13.7279 26.4499 13.7294 26.4514C13.7287 26.4467 13.7378 26.442 13.734 26.442C13.7317 26.4428 13.7287 26.4467 13.7287 26.4436C13.7363 26.4374 13.7453 26.4334 13.7529 26.4272C13.7507 26.428 13.7522 26.4248 13.7507 26.4248L13.7431 26.4287C13.7567 26.4108 13.7742 26.4022 13.781 26.381C13.7878 26.3771 13.7787 26.3849 13.7833 26.3834C13.7931 26.3756 13.7984 26.3638 13.8075 26.3552C13.8105 26.338 13.8295 26.3388 13.8242 26.3294C13.8303 26.3317 13.8287 26.3208 13.8371 26.3216C13.8356 26.3153 13.8401 26.3138 13.8424 26.3106C13.8477 26.3153 13.8545 26.3028 13.8522 26.2958C13.856 26.295 13.8553 26.2973 13.8568 26.2981C13.8568 26.295 13.8628 26.2973 13.8628 26.2942C13.8606 26.2934 13.8591 26.2887 13.8628 26.2887C13.8636 26.2903 13.8621 26.2942 13.8644 26.2942C13.8689 26.2942 13.8666 26.2872 13.8689 26.2848C13.8704 26.2872 13.8712 26.2864 13.8742 26.2864C13.8735 26.2809 13.8773 26.2793 13.8773 26.2731C13.8757 26.2746 13.875 26.2739 13.8742 26.2715C13.875 26.2715 13.8765 26.2715 13.8765 26.2707C13.8757 26.2692 13.8719 26.2699 13.8719 26.2676C13.8795 26.266 13.875 26.2598 13.8841 26.2621C13.8841 26.2645 13.8773 26.2637 13.8841 26.2668C13.8848 26.2699 13.878 26.2707 13.881 26.2731C13.8833 26.2723 13.8841 26.2676 13.8886 26.2715C13.8871 26.2668 13.8917 26.2699 13.8917 26.266C13.8894 26.2637 13.8901 26.2668 13.8879 26.266C13.8886 26.2637 13.8856 26.2637 13.8848 26.2621C13.8848 26.259 13.8863 26.2582 13.8894 26.259C13.8894 26.2606 13.8886 26.2629 13.8901 26.2637C13.8901 26.2621 13.8924 26.2629 13.8924 26.2621C13.8932 26.259 13.8901 26.259 13.8909 26.2559C13.8985 26.2574 13.9015 26.2449 13.9098 26.2543C13.9106 26.2535 13.9136 26.2535 13.9114 26.2504C13.9091 26.248 13.9076 26.2527 13.9068 26.248C13.9114 26.2496 13.9167 26.2426 13.9182 26.252C13.9189 26.252 13.9189 26.252 13.9197 26.2512C13.9205 26.2488 13.9182 26.2473 13.9189 26.2449C13.922 26.243 13.9254 26.2432 13.9286 26.2435L13.9294 26.2436L13.9284 26.2454L13.928 26.248C13.9311 26.2504 13.9318 26.2504 13.9356 26.2567C13.9356 26.2504 13.9364 26.2488 13.9371 26.2426L13.9369 26.2437L13.9376 26.2437L13.9392 26.2424L13.939 26.2439C13.9387 26.2451 13.9386 26.2452 13.9383 26.2461L13.9379 26.248C13.9402 26.2504 13.9424 26.2496 13.9447 26.2488C13.9424 26.2426 13.9455 26.2473 13.947 26.2434L13.9463 26.2443L13.9511 26.2453C13.9543 26.2457 13.9576 26.2454 13.9611 26.2464L13.9667 26.2488C13.9667 26.248 13.9659 26.2473 13.9667 26.2465C13.969 26.2512 13.9728 26.2527 13.9781 26.2535C13.9834 26.2559 13.9894 26.2582 13.994 26.2613C13.9955 26.2598 13.9947 26.2582 13.9963 26.2574C14.0016 26.2621 14.0099 26.266 14.016 26.2723C14.016 26.2707 14.0152 26.2692 14.0175 26.2692C14.019 26.2754 14.0228 26.2801 14.0281 26.277C14.0327 26.2895 14.0463 26.2856 14.0508 26.2989C14.0531 26.295 14.0592 26.302 14.0539 26.3036C14.0546 26.3005 14.0486 26.2989 14.0478 26.302C14.0501 26.3059 14.0471 26.3067 14.0471 26.3106C14.0539 26.3138 14.0569 26.3067 14.0584 26.3044C14.063 26.3106 14.0706 26.3145 14.0774 26.32C14.0781 26.3224 14.0766 26.3224 14.0766 26.3247C14.0986 26.3333 14.1092 26.3599 14.1229 26.3693C14.1274 26.3787 14.1282 26.3779 14.1297 26.3842C14.132 26.3849 14.1312 26.3834 14.1342 26.3849C14.1729 26.4342 14.2138 26.4639 14.2601 26.5015C14.2661 26.4999 14.2775 26.5109 14.2828 26.5187C14.2949 26.5187 14.2987 26.5289 14.3086 26.5328C14.3154 26.5312 14.3533 26.5547 14.3738 26.5594C14.3723 26.5602 14.3715 26.5617 14.3738 26.5641L14.3728 26.5627L14.3718 26.5629C14.3709 26.5631 14.3702 26.5633 14.3696 26.5637L14.3685 26.5649C14.3707 26.5656 14.373 26.5664 14.3745 26.5688C14.3806 26.5688 14.3851 26.5688 14.3806 26.5641L14.3812 26.5649L14.3824 26.565C14.3934 26.5675 14.4022 26.5736 14.4095 26.5746L14.4147 26.5742C14.417 26.5766 14.4177 26.5782 14.4177 26.5797C14.4223 26.5813 14.4268 26.5805 14.4276 26.5782C14.4359 26.5829 14.4374 26.5774 14.4367 26.5836C14.4496 26.5836 14.4609 26.5899 14.4746 26.5875C14.4723 26.5883 14.4708 26.5891 14.4738 26.5907L14.4766 26.5908L14.4787 26.5922C14.4822 26.5936 14.4861 26.5926 14.4898 26.5926L14.4935 26.593L14.4932 26.5921L14.4957 26.5922L14.5034 26.5907C14.4988 26.5915 14.5079 26.5961 14.5102 26.5946C14.5186 26.5938 14.5064 26.5915 14.5148 26.5899C14.5292 26.5946 14.5443 26.5954 14.5595 26.5915C14.5671 26.5954 14.5792 26.5875 14.5966 26.5852C14.6065 26.5836 14.6285 26.5852 14.6315 26.5789C14.674 26.5735 14.705 26.5531 14.7399 26.5383C14.7376 26.5383 14.7346 26.5383 14.7354 26.5367C14.7414 26.5344 14.7376 26.5367 14.7429 26.5367C14.7573 26.5203 14.799 26.5038 14.8165 26.4804C14.8165 26.4812 14.8172 26.4819 14.8195 26.4812C14.8309 26.4655 14.8468 26.4553 14.8612 26.4444C14.8741 26.4248 14.8885 26.4037 14.9052 26.3975C14.9067 26.3928 14.9014 26.3951 14.9029 26.3904C14.9097 26.3896 14.9097 26.3802 14.915 26.3771C14.915 26.3802 14.9112 26.3826 14.9135 26.3826C14.9165 26.3771 14.918 26.3763 14.9173 26.3716C14.9211 26.3669 14.9241 26.3646 14.9271 26.3615L14.9332 26.3552C14.937 26.3505 14.9408 26.3458 14.9438 26.3411C14.9506 26.3317 14.9575 26.3216 14.9666 26.3153C14.9666 26.3122 14.9666 26.3098 14.9635 26.3098L14.9271 26.3544L14.8673 26.4248C14.846 26.4491 14.818 26.471 14.793 26.4929C14.7634 26.5124 14.7338 26.5328 14.699 26.5476C14.63 26.5797 14.5474 26.5891 14.4731 26.5782C14.3965 26.5672 14.3328 26.5359 14.2775 26.4999C14.2222 26.4624 14.1767 26.4217 14.1335 26.3701C14.1062 26.3349 14.0819 26.3098 14.0524 26.2856C14.0243 26.2621 13.9963 26.2457 13.972 26.2371C13.9477 26.2285 13.9296 26.2246 13.9061 26.2324C13.8992 26.2316 13.8901 26.241 13.8833 26.241C13.8818 26.2465 13.8757 26.2465 13.8735 26.2512C13.8719 26.2504 13.8682 26.2488 13.8682 26.2512C13.8712 26.2559 13.8613 26.2574 13.8591 26.259C13.853 26.2621 13.8515 26.2723 13.8469 26.27C13.8484 26.2684 13.8492 26.2653 13.8515 26.2645C13.8409 26.2621 13.8409 26.2793 13.8295 26.2809C13.8287 26.295 13.8068 26.302 13.8113 26.3114C13.8083 26.3114 13.809 26.3145 13.8052 26.3138C13.8075 26.3177 13.8007 26.3255 13.7954 26.3216C13.7878 26.3317 13.784 26.3466 13.7726 26.3544C13.7704 26.3544 13.7742 26.3466 13.7711 26.3474C13.7704 26.3497 13.7666 26.3576 13.7711 26.3552C13.7643 26.3701 13.7491 26.3771 13.7431 26.3935C13.7408 26.3904 13.734 26.3982 13.7363 26.4022C13.7332 26.4029 13.734 26.4006 13.7325 26.3998C13.7279 26.4068 13.7173 26.4108 13.7196 26.4178C13.7128 26.4233 13.7105 26.4256 13.7052 26.4295C13.693 26.4287 13.6726 26.4608 13.6498 26.4639C13.6354 26.4819 13.6142 26.4812 13.5968 26.4976C13.5922 26.4952 13.59 26.5015 13.5854 26.4999C13.596 26.4905 13.6127 26.4882 13.6248 26.4765C13.6241 26.4741 13.6248 26.4718 13.6233 26.4702C13.6188 26.4718 13.615 26.4749 13.6127 26.4804C13.6051 26.4819 13.6188 26.4702 13.6081 26.4741C13.6104 26.4788 13.5922 26.4819 13.599 26.4859C13.59 26.4859 13.5862 26.4929 13.5809 26.4913C13.5862 26.4945 13.5793 26.496 13.5801 26.5007C13.5695 26.4999 13.5634 26.5054 13.5574 26.5101C13.552 26.5101 13.5566 26.507 13.5536 26.5062C13.5445 26.5117 13.5248 26.5132 13.5195 26.5109C13.5278 26.5117 13.5354 26.507 13.5437 26.5062C13.5384 26.5046 13.5437 26.5007 13.5346 26.4999C13.5354 26.5038 13.5293 26.5031 13.5255 26.507C13.527 26.4999 13.4906 26.5015 13.4838 26.5078C13.477 26.5054 13.4876 26.5046 13.4808 26.5023L13.4762 26.5031C13.474 26.507 13.4702 26.5085 13.477 26.5124C13.4725 26.5109 13.4671 26.5109 13.4626 26.5109C13.4641 26.5148 13.4747 26.5132 13.4717 26.5164C13.4664 26.5124 13.4596 26.5187 13.4543 26.5132C13.4581 26.5093 13.4641 26.5109 13.4649 26.507C13.4588 26.5046 13.4527 26.5078 13.4474 26.5054C13.4512 26.5031 13.4444 26.5007 13.4482 26.4984C13.4527 26.4984 13.4634 26.4968 13.4596 26.4929C13.4558 26.4913 13.4512 26.4968 13.4474 26.4952C13.4535 26.4921 13.4376 26.4905 13.4452 26.4882C13.4399 26.4874 13.4285 26.4882 13.4368 26.4937C13.4406 26.489 13.4391 26.4952 13.4421 26.4976C13.4436 26.4968 13.4452 26.496 13.4467 26.4968C13.4429 26.4976 13.4444 26.4992 13.4414 26.5007C13.4346 26.4999 13.4406 26.496 13.4338 26.4929C13.4315 26.4937 13.4292 26.4929 13.4262 26.4945C13.427 26.4976 13.4361 26.4952 13.4315 26.4984C13.4217 26.4952 13.4111 26.4952 13.402 26.489C13.4141 26.4898 13.4194 26.489 13.4323 26.489C13.4315 26.4882 13.4323 26.4874 13.4315 26.4866C13.4194 26.4858 13.4073 26.4859 13.3951 26.4827C13.3921 26.4804 13.3951 26.4796 13.3951 26.478C13.3936 26.4788 13.3921 26.478 13.3906 26.478C13.3891 26.4788 13.3913 26.4804 13.3898 26.4812C13.3845 26.4804 13.3739 26.4788 13.3754 26.4741C13.3671 26.4718 13.3481 26.4733 13.3466 26.4663C13.3497 26.4671 13.3587 26.4671 13.3716 26.4686C13.3633 26.4639 13.3512 26.4655 13.3443 26.4577C13.3489 26.4632 13.339 26.4616 13.3406 26.4655C13.339 26.4632 13.3352 26.4647 13.3345 26.4616C13.3413 26.4624 13.3443 26.4593 13.3428 26.4546C13.3337 26.4561 13.333 26.4522 13.3315 26.4467C13.314 26.4444 13.3095 26.435 13.2951 26.4295C13.2973 26.4267 13.3021 26.4295 13.3063 26.4311L13.307 26.4312C13.3083 26.4319 13.3093 26.4321 13.3101 26.4324L13.3125 26.4334C13.3133 26.4319 13.3131 26.4315 13.3125 26.431L13.3123 26.4308L13.3133 26.4303L13.3103 26.428C13.3123 26.428 13.3133 26.4273 13.3137 26.4263L13.314 26.4248C13.3193 26.4248 13.3216 26.4287 13.3269 26.4287C13.3277 26.4241 13.3163 26.4225 13.3239 26.4217C13.3299 26.4256 13.3413 26.4327 13.3421 26.4366L13.3405 26.4348C13.3393 26.4339 13.3376 26.4337 13.3358 26.4338L13.333 26.4342C13.3375 26.4436 13.3534 26.4444 13.3565 26.4499C13.3595 26.4491 13.3595 26.4475 13.3572 26.4452C13.3625 26.4428 13.3663 26.4452 13.3701 26.4467C13.3754 26.4569 13.3898 26.4585 13.405 26.4593C13.4027 26.4608 13.3959 26.4577 13.3974 26.4616C13.4012 26.4663 13.4088 26.4616 13.4133 26.4639C13.4126 26.4655 13.408 26.4655 13.4118 26.4686L13.4179 26.4663C13.4255 26.4749 13.4368 26.4647 13.4452 26.4655C13.4512 26.4718 13.4671 26.4686 13.4664 26.4632C13.4649 26.4624 13.4558 26.4671 13.4588 26.4624C13.4641 26.4647 13.4565 26.4593 13.4603 26.4585L13.4732 26.4647C13.4671 26.4694 13.4679 26.4686 13.4611 26.4702C13.4725 26.4757 13.4884 26.4733 13.4929 26.4679C13.4914 26.4702 13.5005 26.471 13.5028 26.471C13.5035 26.4639 13.5149 26.4702 13.5202 26.4671C13.5202 26.4655 13.5248 26.4585 13.5286 26.4593C13.5286 26.4616 13.527 26.4647 13.5316 26.4663C13.5376 26.4585 13.5414 26.4671 13.549 26.4577C13.5437 26.4593 13.5467 26.4561 13.5467 26.4538C13.5536 26.4522 13.5657 26.446 13.5596 26.4538C13.5665 26.4475 13.5793 26.4413 13.59 26.4374L13.593 26.4311C13.5998 26.4287 13.5907 26.4374 13.5945 26.4374C13.6028 26.4295 13.6051 26.4233 13.6157 26.4178C13.6112 26.417 13.6112 26.4217 13.6066 26.4209C13.6103 26.419 13.6147 26.4144 13.6187 26.4114L13.6213 26.4098C13.6241 26.4076 13.6263 26.4068 13.6271 26.4092L13.6236 26.4121L13.6201 26.4151L13.6237 26.4133C13.6265 26.4119 13.6294 26.4104 13.6315 26.4081L13.6339 26.4037C13.6309 26.4053 13.6271 26.4084 13.6279 26.4037C13.6332 26.4022 13.6347 26.3959 13.6362 26.4014C13.6347 26.3951 13.64 26.3951 13.6423 26.3896C13.6385 26.3912 13.6362 26.3928 13.6316 26.3928C13.6309 26.3967 13.6286 26.3967 13.6279 26.4006C13.6135 26.3959 13.6051 26.4194 13.5892 26.4186C13.5846 26.4256 13.5756 26.4241 13.5702 26.4311C13.5566 26.4342 13.5437 26.4381 13.5316 26.4444C13.5316 26.442 13.5286 26.4413 13.5293 26.4389C13.5263 26.4405 13.5225 26.4381 13.5195 26.4413C13.5141 26.4389 13.5157 26.4358 13.5134 26.4334L13.5164 26.4335C13.52 26.4332 13.5222 26.4311 13.521 26.428C13.5255 26.4287 13.5225 26.4311 13.5263 26.4319C13.5339 26.4287 13.5339 26.4233 13.5445 26.4264C13.546 26.4241 13.5422 26.4241 13.5452 26.4209C13.552 26.4201 13.5536 26.4201 13.549 26.4178C13.552 26.4154 13.5566 26.4178 13.5596 26.4162C13.5702 26.4076 13.5816 26.4061 13.5907 26.4014C13.5922 26.3967 13.5975 26.3889 13.5915 26.3889C13.59 26.3928 13.5922 26.3935 13.5884 26.3959C13.5831 26.3975 13.5892 26.3912 13.5839 26.3928C13.5695 26.4037 13.5528 26.41 13.5354 26.4115C13.5369 26.4061 13.5414 26.4076 13.5437 26.4053C13.5437 26.4014 13.5384 26.4037 13.5407 26.3998C13.5422 26.4006 13.543 26.4014 13.5437 26.4022C13.5498 26.3975 13.549 26.3943 13.5543 26.3928C13.5483 26.3967 13.5551 26.3959 13.5528 26.4006C13.5505 26.3998 13.5483 26.3982 13.5467 26.3998C13.5475 26.4014 13.5452 26.4053 13.549 26.4061C13.5467 26.3998 13.5543 26.4045 13.5581 26.399C13.5536 26.3982 13.5596 26.3928 13.5604 26.3912C13.5695 26.3873 13.5877 26.3677 13.5968 26.3693C13.5975 26.3669 13.5915 26.3677 13.5945 26.3638C13.6036 26.3662 13.6044 26.363 13.6104 26.3591L13.6087 26.3624C13.6083 26.3643 13.6087 26.3659 13.608 26.367L13.6059 26.3685C13.6059 26.3662 13.6059 26.3646 13.6036 26.3654C13.6028 26.3685 13.599 26.3716 13.6006 26.3748C13.6036 26.3716 13.618 26.3638 13.6127 26.3544C13.6165 26.3529 13.6188 26.3482 13.6225 26.3466C13.6225 26.3521 13.6172 26.356 13.6218 26.3568C13.6263 26.356 13.6248 26.3466 13.6294 26.3458C13.6225 26.3411 13.6392 26.3333 13.637 26.3278C13.64 26.3294 13.6377 26.3302 13.6392 26.3317C13.6423 26.3302 13.6468 26.3263 13.6445 26.3239C13.6506 26.3239 13.6476 26.3184 13.6529 26.3208C13.6551 26.3153 13.6574 26.3106 13.6536 26.3083C13.6567 26.3028 13.6582 26.3122 13.6604 26.3067C13.6574 26.3052 13.6574 26.302 13.6635 26.2973L13.6644 26.2976L13.6647 26.2973L13.6655 26.2967L13.665 26.2958L13.6703 26.2926C13.6741 26.2942 13.665 26.2989 13.6695 26.3005C13.6756 26.2965 13.6771 26.2879 13.6718 26.2864C13.6771 26.2872 13.6855 26.2832 13.6802 26.2786C13.6832 26.2746 13.6824 26.2786 13.6855 26.2786C13.693 26.2645 13.7006 26.2606 13.7067 26.2457C13.7112 26.2426 13.7112 26.2465 13.7135 26.2465C13.7173 26.2387 13.7158 26.2308 13.7226 26.2316C13.7226 26.2254 13.7279 26.223 13.7272 26.2199L13.7274 26.2211C13.7278 26.2216 13.7285 26.2215 13.7294 26.2212L13.7309 26.2207C13.7309 26.2175 13.7378 26.1964 13.7431 26.2027C13.7446 26.1956 13.7499 26.1878 13.7499 26.1831C13.7512 26.1832 13.7524 26.183 13.7537 26.1825L13.7545 26.1819L13.7559 26.1795C13.7575 26.1769 13.7597 26.1748 13.7614 26.175L13.7627 26.1759L13.7647 26.174C13.7691 26.1695 13.7725 26.1654 13.7737 26.1672L13.7742 26.1698C13.7802 26.1667 13.7749 26.162 13.7817 26.1612C13.7863 26.1612 13.7749 26.1667 13.7802 26.1675C13.7848 26.1651 13.7939 26.1573 13.7893 26.1534C13.7878 26.155 13.781 26.1612 13.781 26.1581C13.787 26.1518 13.7977 26.1464 13.8037 26.1464C13.8075 26.1424 13.7992 26.1456 13.803 26.1409L13.8046 26.1406L13.809 26.1366L13.8109 26.1353L13.8128 26.1354C13.811 26.1363 13.8103 26.1374 13.8096 26.1383L13.8092 26.1387L13.8105 26.1382C13.814 26.1364 13.8169 26.1347 13.8205 26.1324L13.8243 26.1297C13.8245 26.1305 13.8244 26.1317 13.8245 26.1329L13.8249 26.1346C13.8318 26.1331 13.8287 26.1284 13.8333 26.1237C13.8416 26.1237 13.8568 26.1198 13.8538 26.1112C13.8598 26.1127 13.8522 26.119 13.8568 26.1213C13.8568 26.1182 13.8606 26.1135 13.8606 26.1104C13.8632 26.1104 13.8659 26.1102 13.8683 26.1093L13.8688 26.109L13.8678 26.1088C13.8668 26.1088 13.8657 26.109 13.8644 26.1096C13.8666 26.1049 13.8704 26.1072 13.8727 26.1033C13.8769 26.104 13.8793 26.1056 13.8777 26.1082L13.8758 26.1103C13.8759 26.1112 13.8767 26.1119 13.8795 26.1119C13.8818 26.1088 13.8841 26.1057 13.8863 26.1033C13.8871 26.1088 13.8932 26.1049 13.9 26.1072C13.9015 26.1057 13.9 26.1049 13.9023 26.1033C13.9106 26.1049 13.9212 26.1033 13.925 26.0955C13.9265 26.0994 13.9364 26.0986 13.9371 26.0955C13.944 26.1041 13.9508 26.0955 13.9576 26.0994C13.9584 26.0955 13.9599 26.0986 13.9629 26.0979C13.9624 26.0973 13.962 26.0968 13.9616 26.0963L13.9612 26.0956L13.9632 26.0963L13.964 26.0963L13.9644 26.0979C13.9723 26.0954 13.9783 26.1019 13.985 26.105L13.9902 26.1065C13.9947 26.1065 13.997 26.1049 13.9963 26.101C13.9887 26.0955 13.991 26.1065 13.9841 26.1018C13.9902 26.1002 13.9864 26.0955 13.9887 26.0924C13.9894 26.0986 13.9963 26.0979 14.0016 26.101C13.9985 26.1033 13.9955 26.1057 13.9993 26.1096C14.0023 26.1096 14.0023 26.1041 14.0061 26.1072C14.0054 26.1088 14.0038 26.1096 14.0038 26.1112C14.0092 26.1119 14.0145 26.1112 14.0198 26.1127C14.022 26.1205 14.038 26.1205 14.0448 26.1268C14.044 26.1252 14.0471 26.1252 14.0478 26.1237C14.0501 26.1252 14.0524 26.1284 14.0562 26.126C14.0577 26.1354 14.066 26.1323 14.0728 26.1354C14.069 26.137 14.0766 26.1385 14.0736 26.1409C14.069 26.1424 14.066 26.1417 14.0637 26.1393C14.063 26.1464 14.0743 26.1503 14.0812 26.151C14.0789 26.1479 14.0743 26.1487 14.0736 26.1432C14.085 26.1471 14.0933 26.1534 14.1047 26.1565C14.1062 26.1565 14.1054 26.155 14.1047 26.1526H14.1122C14.1145 26.1581 14.1085 26.1565 14.1107 26.1612C14.116 26.1698 14.1206 26.162 14.1229 26.1706C14.1282 26.169 14.1213 26.1612 14.1176 26.1597C14.1244 26.1581 14.1259 26.1683 14.1297 26.1636C14.1312 26.1698 14.1221 26.1683 14.1266 26.1769C14.1335 26.1784 14.1456 26.1933 14.1509 26.1831C14.1448 26.1816 14.1403 26.1784 14.1357 26.1753C14.1388 26.1722 14.1411 26.18 14.1426 26.1745C14.1479 26.1831 14.1638 26.1886 14.1653 26.1949L14.1637 26.193L14.1615 26.1917C14.1623 26.1964 14.1668 26.1988 14.16 26.1972C14.1547 26.1964 14.1645 26.1941 14.1592 26.1933C14.1517 26.1909 14.16 26.1964 14.1562 26.1972C14.1517 26.1917 14.1494 26.198 14.1433 26.1917C14.1441 26.1964 14.1479 26.198 14.1509 26.2003C14.1539 26.2003 14.1585 26.198 14.16 26.2027C14.1585 26.2042 14.1555 26.2035 14.1555 26.2066C14.1585 26.2082 14.1623 26.2113 14.1638 26.2074C14.1592 26.205 14.1653 26.2019 14.1608 26.1988C14.1676 26.198 14.1668 26.205 14.1699 26.2082C14.1714 26.2082 14.1752 26.2089 14.1752 26.2074C14.1714 26.2058 14.1699 26.2027 14.1676 26.1995C14.1729 26.1972 14.1706 26.2019 14.1767 26.2019C14.1729 26.1964 14.1676 26.1933 14.1638 26.1886C14.1653 26.1886 14.1676 26.1894 14.1676 26.1878C14.1638 26.1855 14.1615 26.1831 14.16 26.187C14.1562 26.1808 14.1517 26.1769 14.1471 26.1761C14.1509 26.1761 14.1456 26.1714 14.1433 26.173C14.1426 26.1714 14.1426 26.1698 14.1433 26.169C14.1411 26.1675 14.1388 26.1667 14.1357 26.1667C14.1342 26.1589 14.1274 26.1581 14.1213 26.1557C14.1236 26.1557 14.1206 26.151 14.1221 26.1503C14.11 26.1503 14.1039 26.1315 14.0941 26.137C14.0933 26.1315 14.088 26.1331 14.0842 26.1323C14.0812 26.1276 14.0834 26.1268 14.0819 26.1237C14.0743 26.1284 14.0675 26.1119 14.0592 26.1104C14.0569 26.1112 14.0577 26.1127 14.0562 26.1135C14.0508 26.1104 14.0493 26.1096 14.0417 26.1065C14.0425 26.1033 14.0493 26.1072 14.0478 26.1025C14.0327 26.1088 14.0175 26.0932 14.0061 26.0916C14.0061 26.0939 14.0069 26.0963 14.0031 26.0971C13.9993 26.0939 13.994 26.0955 13.9902 26.0932C13.994 26.0916 13.997 26.09 13.997 26.0877C13.975 26.0775 13.9432 26.0861 13.9243 26.0775C13.9273 26.0767 13.9303 26.0775 13.9333 26.0759C13.9288 26.0736 13.9318 26.072 13.928 26.0705C13.9212 26.0775 13.9174 26.0705 13.9136 26.0713C13.9091 26.0744 13.9121 26.0752 13.9076 26.0783C13.9038 26.0736 13.9008 26.0752 13.8962 26.0744C13.8947 26.0756 13.8945 26.0763 13.8947 26.077L13.8954 26.0791C13.8901 26.0783 13.8795 26.0846 13.878 26.0806C13.8818 26.0799 13.8856 26.0814 13.8886 26.0775C13.8765 26.0783 13.8841 26.0744 13.8788 26.0705C13.8735 26.0728 13.8757 26.0744 13.8757 26.0767C13.8689 26.0806 13.856 26.083 13.8447 26.0861C13.8462 26.09 13.8401 26.0924 13.8371 26.0963C13.831 26.0963 13.8393 26.0908 13.8325 26.0908C13.8287 26.0979 13.8242 26.0994 13.8204 26.1041C13.8227 26.1049 13.8257 26.1018 13.8249 26.1041C13.8196 26.1049 13.8189 26.1104 13.8212 26.1119C13.8174 26.1127 13.8151 26.1182 13.8098 26.1174C13.8105 26.1127 13.8143 26.1143 13.8158 26.1119C13.8105 26.1127 13.8151 26.1088 13.8166 26.1072C13.8105 26.1104 13.806 26.1119 13.803 26.1096C13.8052 26.1119 13.8098 26.1041 13.8068 26.1049C13.7977 26.1072 13.7931 26.119 13.7855 26.1237C13.787 26.1198 13.7908 26.1151 13.784 26.1166C13.7833 26.1229 13.7772 26.1346 13.7704 26.1331C13.7726 26.1331 13.7779 26.1284 13.7742 26.1284C13.7681 26.1315 13.7635 26.1362 13.7598 26.1417C13.756 26.1424 13.7544 26.1417 13.7529 26.1409C13.7499 26.1464 13.7522 26.144 13.7507 26.1503L13.7446 26.1526C13.7423 26.1534 13.7438 26.1503 13.7423 26.1503C13.7287 26.1581 13.7256 26.1698 13.7173 26.18C13.7165 26.1769 13.7158 26.1745 13.7135 26.1722C13.7105 26.1769 13.7059 26.1792 13.7059 26.1855C13.7097 26.1839 13.712 26.1729 13.7135 26.18C13.7105 26.1855 13.7052 26.1878 13.6984 26.1909C13.6968 26.1995 13.7037 26.1894 13.7052 26.1933C13.6979 26.1994 13.6928 26.2075 13.6886 26.2151L13.6847 26.2222C13.6813 26.224 13.6817 26.2214 13.6802 26.2209L13.6779 26.2214C13.6756 26.2402 13.6589 26.2465 13.6529 26.2574C13.6536 26.2535 13.6529 26.2527 13.6491 26.2543C13.6491 26.2598 13.6483 26.2645 13.646 26.2676C13.646 26.266 13.6453 26.2653 13.6438 26.2653C13.64 26.2754 13.6301 26.2801 13.6279 26.2919L13.6276 26.2898C13.6274 26.2892 13.6272 26.2888 13.6268 26.2884L13.6256 26.2879C13.618 26.3028 13.6165 26.2981 13.6059 26.3052C13.6066 26.302 13.6059 26.2997 13.6036 26.2997C13.6028 26.3059 13.599 26.3005 13.5975 26.3052C13.5968 26.3075 13.5975 26.3098 13.5983 26.3114C13.596 26.3122 13.5937 26.313 13.593 26.3145C13.593 26.3169 13.5968 26.3153 13.5968 26.3169C13.59 26.32 13.5922 26.3169 13.5862 26.3224C13.5884 26.3224 13.593 26.3208 13.5907 26.3247C13.5809 26.3263 13.5695 26.3388 13.5687 26.3278C13.5634 26.3286 13.5619 26.3341 13.5574 26.3357C13.5581 26.3341 13.5589 26.3325 13.5574 26.3317C13.5543 26.3364 13.5505 26.331 13.5475 26.3349C13.5475 26.3388 13.552 26.3411 13.552 26.345C13.5483 26.3411 13.5392 26.3427 13.5407 26.3505C13.527 26.3521 13.5149 26.3552 13.5028 26.3583C13.4906 26.3568 13.4793 26.3615 13.4671 26.3568C13.4694 26.3529 13.4717 26.3583 13.474 26.3568C13.474 26.3537 13.477 26.3544 13.4755 26.3513C13.4747 26.3529 13.4732 26.3505 13.4725 26.3513C13.4717 26.3529 13.4725 26.3536 13.4702 26.3552C13.4671 26.3529 13.4694 26.3513 13.4687 26.3497C13.4664 26.349 13.4649 26.3482 13.4634 26.3482C13.4634 26.349 13.4626 26.3505 13.4626 26.3521C13.4664 26.356 13.4664 26.3591 13.4679 26.3623C13.4664 26.3599 13.4634 26.363 13.4618 26.3599C13.4626 26.3583 13.4664 26.3576 13.4634 26.3552C13.4573 26.3568 13.4527 26.3474 13.4459 26.3529C13.4452 26.349 13.4444 26.349 13.4429 26.3521C13.4414 26.3474 13.4391 26.3482 13.4376 26.3466C13.4414 26.345 13.4436 26.3474 13.4474 26.3458C13.4436 26.3372 13.4376 26.3419 13.433 26.3396C13.4353 26.3349 13.4285 26.3364 13.4277 26.3341C13.4292 26.3317 13.4346 26.3294 13.4338 26.3263C13.4292 26.3294 13.4277 26.3263 13.4239 26.3263C13.4201 26.3278 13.4217 26.3278 13.4186 26.331C13.4179 26.3255 13.4179 26.3271 13.4156 26.3216C13.4194 26.32 13.4186 26.3185 13.4209 26.3153C13.4232 26.3153 13.4247 26.32 13.4285 26.3169C13.433 26.3239 13.4391 26.3216 13.4459 26.3271C13.452 26.3216 13.4543 26.3302 13.4581 26.3278C13.4573 26.3271 13.4565 26.3255 13.4581 26.3247C13.4596 26.3278 13.4611 26.3247 13.4626 26.3286C13.4618 26.331 13.4596 26.3333 13.4618 26.3357L13.4641 26.3349C13.4679 26.3317 13.4641 26.3278 13.4679 26.3255C13.4702 26.3286 13.4709 26.3286 13.4732 26.3255C13.474 26.3271 13.4747 26.3286 13.4747 26.3294C13.4762 26.3278 13.4778 26.3247 13.4793 26.3247C13.48 26.331 13.4747 26.3294 13.4717 26.3294C13.4725 26.3317 13.4694 26.3333 13.4725 26.3357C13.4755 26.3341 13.4778 26.3349 13.4808 26.3317C13.4838 26.3325 13.4831 26.3364 13.4853 26.3317C13.4869 26.3333 13.4861 26.3349 13.4884 26.3364C13.4891 26.3333 13.4914 26.3341 13.4922 26.3317C13.4937 26.3325 13.4944 26.338 13.4967 26.3364C13.4944 26.3333 13.4929 26.3302 13.4952 26.3271L13.4967 26.3302C13.498 26.332 13.4986 26.3305 13.5001 26.3317L13.502 26.3341C13.5028 26.3286 13.5035 26.3302 13.5058 26.3271C13.5035 26.3255 13.4997 26.331 13.499 26.3263C13.502 26.3231 13.5066 26.3247 13.5104 26.3231C13.5073 26.3169 13.5187 26.3192 13.5217 26.3161L13.5209 26.3165L13.5195 26.3161L13.5199 26.3156L13.5188 26.3155C13.5145 26.3147 13.5092 26.3142 13.5073 26.3107L13.5066 26.3075C13.505 26.3075 13.5043 26.3091 13.5035 26.3106C13.5051 26.3114 13.5058 26.313 13.5058 26.3145C13.5005 26.3138 13.505 26.3224 13.5005 26.3224C13.5013 26.32 13.502 26.3177 13.5005 26.3161C13.4997 26.3153 13.4982 26.3153 13.4975 26.3161L13.496 26.3208C13.4937 26.3192 13.4922 26.3192 13.4899 26.3169C13.4906 26.3122 13.4929 26.3153 13.4937 26.3122C13.4922 26.3114 13.4906 26.3098 13.4899 26.3106L13.4876 26.3161C13.4891 26.3161 13.4899 26.3169 13.4891 26.3192C13.4853 26.3161 13.4823 26.3177 13.4785 26.3177C13.4747 26.3357 13.4626 26.3114 13.4573 26.32C13.4603 26.3177 13.4603 26.3145 13.4611 26.3122C13.4641 26.3161 13.4702 26.3231 13.4717 26.3161C13.474 26.3216 13.4755 26.3192 13.4778 26.3184C13.477 26.3145 13.4747 26.3184 13.4747 26.313C13.4725 26.3216 13.4687 26.3067 13.4679 26.3161C13.4649 26.3091 13.4618 26.313 13.4596 26.3098C13.4618 26.3083 13.4626 26.3091 13.4618 26.3059C13.4603 26.3075 13.4603 26.3028 13.4603 26.302L13.4601 26.3037C13.4597 26.3042 13.459 26.3037 13.4581 26.3042L13.4565 26.3059C13.4581 26.3059 13.4581 26.3067 13.4573 26.3091C13.455 26.3075 13.452 26.3098 13.4505 26.3036C13.4512 26.302 13.4527 26.3012 13.4527 26.2997C13.4497 26.2981 13.449 26.302 13.4459 26.3028C13.4459 26.2958 13.4414 26.2997 13.4414 26.2919C13.4383 26.2926 13.4361 26.2864 13.4346 26.2856L13.4353 26.2862C13.436 26.286 13.4368 26.2846 13.4372 26.2836L13.4376 26.2825C13.4353 26.2817 13.4338 26.2739 13.433 26.2801C13.4308 26.277 13.4338 26.2778 13.4338 26.2739C13.4315 26.2762 13.4315 26.2707 13.43 26.2715C13.427 26.2754 13.43 26.2746 13.4308 26.277C13.4292 26.2793 13.4292 26.277 13.4262 26.2793C13.4255 26.2762 13.4247 26.2754 13.4224 26.2778C13.4239 26.2746 13.4194 26.2739 13.4232 26.2707C13.4239 26.2715 13.4224 26.2778 13.4277 26.2739C13.4247 26.2699 13.4277 26.2692 13.4277 26.2645C13.4232 26.2684 13.4247 26.2598 13.4209 26.2606C13.4232 26.259 13.4239 26.2613 13.4262 26.259C13.4262 26.2637 13.4285 26.2637 13.4308 26.2637C13.4308 26.2621 13.4315 26.2598 13.4323 26.2613C13.4315 26.266 13.4383 26.2653 13.4414 26.2637C13.4421 26.266 13.4406 26.2668 13.4414 26.2692C13.4436 26.2668 13.4474 26.2676 13.4467 26.2715C13.4444 26.2762 13.4452 26.2676 13.4436 26.27C13.4429 26.2731 13.4383 26.2746 13.4391 26.2778C13.4414 26.2778 13.4406 26.2754 13.4429 26.2739C13.4436 26.2778 13.4459 26.2746 13.4467 26.2762C13.4482 26.2786 13.4452 26.2793 13.4467 26.2817L13.4476 26.2793C13.4484 26.2781 13.4496 26.2777 13.4506 26.2778L13.452 26.2786C13.4527 26.2746 13.4527 26.2739 13.4543 26.2715C13.4558 26.2754 13.4581 26.2707 13.4596 26.2746C13.4596 26.277 13.4573 26.2746 13.4581 26.2778C13.4603 26.2762 13.4603 26.2817 13.4626 26.2786C13.4626 26.2792 13.4628 26.2798 13.463 26.2805L13.4635 26.2814L13.4626 26.2825C13.4643 26.2825 13.4639 26.2847 13.4642 26.2868L13.4649 26.2886L13.4654 26.2873C13.466 26.2871 13.4669 26.2897 13.4678 26.2898L13.4687 26.2887C13.4679 26.2882 13.4673 26.2867 13.4668 26.2852L13.4662 26.2838L13.4668 26.284L13.4679 26.2832C13.4702 26.2864 13.4679 26.2895 13.4702 26.2919L13.4705 26.289C13.471 26.2877 13.4717 26.2875 13.4721 26.2865L13.4725 26.284C13.4732 26.2872 13.474 26.284 13.4747 26.2856C13.474 26.2872 13.4732 26.2887 13.4747 26.2903C13.4747 26.2887 13.4755 26.2895 13.4762 26.2879C13.4778 26.2903 13.4762 26.2926 13.4778 26.295C13.4785 26.2895 13.4808 26.2934 13.4823 26.2919C13.48 26.2895 13.4785 26.2879 13.477 26.2872C13.4785 26.284 13.4831 26.2926 13.4853 26.2872C13.4816 26.2879 13.477 26.2801 13.4747 26.2825C13.4755 26.2832 13.4762 26.2848 13.4755 26.2864C13.4732 26.2832 13.474 26.2832 13.4725 26.2817V26.2754C13.4762 26.2809 13.4816 26.2864 13.4816 26.2778L13.4819 26.2793C13.4824 26.2806 13.4836 26.2809 13.4839 26.2796L13.4838 26.2778C13.4861 26.2793 13.4846 26.2825 13.4861 26.284C13.4861 26.2817 13.4884 26.2832 13.4891 26.2825C13.4884 26.2809 13.4853 26.2817 13.4861 26.2778C13.4861 26.2746 13.4891 26.2817 13.4891 26.2786C13.4884 26.2739 13.4884 26.2746 13.4899 26.2723C13.4876 26.2707 13.4884 26.2684 13.4876 26.2668C13.4906 26.2699 13.4884 26.2637 13.4884 26.2621C13.4914 26.2645 13.4899 26.2676 13.4922 26.27C13.4922 26.2676 13.4944 26.2692 13.4967 26.2676C13.4967 26.2699 13.4952 26.2699 13.4975 26.2723L13.4976 26.275L13.4982 26.2778C13.496 26.2778 13.4975 26.2809 13.4944 26.2786C13.4997 26.2848 13.5058 26.2825 13.5073 26.2786C13.5073 26.2825 13.5088 26.2832 13.5119 26.2809C13.5119 26.2793 13.5111 26.2786 13.5096 26.2778C13.5134 26.2762 13.521 26.2754 13.5202 26.2707C13.5179 26.2707 13.5164 26.2713 13.5148 26.2714L13.5141 26.2713L13.5145 26.2691C13.5154 26.2673 13.5178 26.2673 13.518 26.2658L13.5172 26.2637C13.5187 26.2645 13.5225 26.2676 13.5225 26.2653C13.5172 26.2574 13.5111 26.266 13.5066 26.2598C13.5096 26.2598 13.5134 26.2606 13.5164 26.2598C13.5104 26.2543 13.5119 26.2504 13.5073 26.2441C13.5126 26.2457 13.5141 26.2363 13.5187 26.2316C13.5179 26.2355 13.5187 26.2371 13.5179 26.2418C13.5195 26.2418 13.521 26.2417 13.5224 26.2415L13.5241 26.2411L13.5232 26.2402C13.5248 26.2394 13.5248 26.2371 13.5286 26.2387V26.2395L13.5303 26.2387C13.5314 26.238 13.5323 26.2371 13.533 26.2361L13.5346 26.2324C13.5452 26.2347 13.543 26.223 13.5543 26.223C13.5536 26.2191 13.5566 26.2199 13.5566 26.2175L13.5627 26.2168C13.5649 26.2066 13.5793 26.2042 13.5839 26.198C13.5824 26.198 13.5801 26.1988 13.5801 26.1972C13.5809 26.1956 13.5801 26.1909 13.5831 26.1933C13.5809 26.1941 13.5839 26.1972 13.5862 26.1956C13.5851 26.1956 13.5952 26.1857 13.6 26.1802L13.6018 26.178L13.6015 26.1793C13.6004 26.1821 13.5982 26.1858 13.5982 26.1873L13.599 26.1878C13.6044 26.1839 13.6081 26.1784 13.6127 26.1737C13.6112 26.169 13.6066 26.1698 13.6066 26.1643C13.6127 26.1675 13.6225 26.1698 13.6286 26.1534L13.6266 26.1586C13.6316 26.156 13.6402 26.144 13.6385 26.1417C13.6335 26.1431 13.6317 26.1473 13.6295 26.1511L13.6277 26.1535L13.6266 26.1539C13.6257 26.1538 13.6255 26.1534 13.6246 26.1539L13.6225 26.1557C13.6256 26.1432 13.6339 26.1393 13.6392 26.126C13.6468 26.1252 13.6514 26.108 13.6665 26.1057C13.6673 26.1002 13.6726 26.1002 13.6733 26.0939C13.6711 26.0947 13.668 26.0963 13.6688 26.0939C13.6786 26.0916 13.6817 26.0767 13.6938 26.0713C13.6923 26.0791 13.6786 26.0853 13.6809 26.0892C13.6908 26.0838 13.7143 26.058 13.7112 26.0689C13.7173 26.0603 13.7309 26.0478 13.7454 26.0415L13.7476 26.0412L13.7482 26.0411L13.7495 26.0411C13.7528 26.0409 13.7543 26.0416 13.7571 26.0404L13.7605 26.0384C13.7643 26.0415 13.7567 26.0462 13.7582 26.0486C13.7605 26.0478 13.762 26.0462 13.7635 26.0447C13.7658 26.0407 13.7635 26.04 13.7681 26.0345C13.7749 26.0329 13.7666 26.0415 13.7696 26.0423C13.7787 26.0415 13.7734 26.0321 13.7825 26.0306C13.7802 26.0345 13.781 26.0361 13.7848 26.0353C13.7916 26.029 13.787 26.0298 13.7893 26.0251C13.7939 26.0275 13.7946 26.0204 13.7992 26.0228C13.8022 26.0251 13.7924 26.0275 13.7961 26.029C13.8037 26.0298 13.8068 26.0196 13.8121 26.0157L13.8108 26.0168L13.8105 26.0167L13.8102 26.0164L13.8092 26.0169C13.8041 26.0186 13.7979 26.0187 13.7986 26.0156L13.7999 26.0134C13.8128 26.0095 13.8257 26.0071 13.8378 25.9993C13.8363 25.9993 13.834 25.9993 13.8356 25.9977C13.8431 25.9972 13.8383 26.0014 13.838 26.0041L13.8382 26.0048L13.834 26.0071L13.8295 26.011C13.8327 26.012 13.8353 26.0098 13.8379 26.0074L13.8395 26.0059L13.8409 26.0063C13.844 26.0021 13.8481 26.0027 13.8519 26.0028L13.8542 26.0026C13.8548 26.0017 13.8555 26.0011 13.8564 26.0005L13.8572 26.0001L13.8552 26.0001C13.852 26.0001 13.8486 26.0005 13.8494 25.9975L13.8507 25.9946C13.8575 25.9938 13.8583 25.9969 13.8621 25.9985L13.8735 25.9907L13.878 25.9904C13.8754 25.9904 13.8731 25.9909 13.8742 25.9891C13.8827 25.986 13.8878 25.9869 13.893 25.9885L13.8944 25.989L13.8947 25.989L13.9053 25.9891C13.8992 25.9946 13.903 25.9868 13.8985 25.9899C13.897 25.9915 13.9008 25.9923 13.9008 25.9938C13.9053 25.9912 13.9139 25.9872 13.9227 25.9858L13.9243 25.9856L13.9232 25.9849C13.9223 25.9844 13.9212 25.984 13.9197 25.9836C13.9241 25.9791 13.9307 25.9821 13.9327 25.9851L13.9329 25.9856L13.9356 25.986C13.9405 25.9879 13.9366 25.9892 13.9379 25.9909L13.9402 25.9923C13.9485 25.9938 13.95 25.9954 13.9561 25.9907C13.9637 25.9938 13.9568 25.9954 13.9584 25.9977C13.9622 25.9977 13.969 25.9969 13.975 25.9969C13.9675 26.0001 13.9743 26.0001 13.9788 26.0032L13.969 26.0023C13.9624 26.0015 13.9558 26.0006 13.9493 25.9996L13.9296 25.9969C13.9326 25.9993 13.925 26.0016 13.9258 26.004C13.9394 26.0063 13.9387 26.0087 13.9432 26.0118C13.9449 26.01 13.9444 26.0077 13.9425 26.0058L13.9416 26.0052L13.9436 26.0054C13.9595 26.0074 13.977 26.0105 13.9877 26.0074L13.9932 26.0048C14.0008 26.0063 13.9932 26.0079 13.9985 26.011C14.0054 26.0095 14.0114 26.0126 14.0175 26.0134C14.0198 26.0102 14.0251 26.0134 14.0251 26.0102C14.0198 26.0079 14.0152 26.0048 14.0092 26.0063C14.0107 26.0079 14.0129 26.0095 14.0114 26.0102C14.0076 26.0071 14.0031 26.0087 13.9993 26.0055C14.0054 26.0032 14.0001 25.9985 14.0054 25.9962C14.0137 25.9977 14.0054 25.9985 14.0107 26.0024C14.0213 25.9977 14.0319 26.0142 14.0357 26.004C14.038 26.0055 14.041 26.0063 14.044 26.0055C14.0493 26.0079 14.044 26.011 14.0501 26.0118C14.0524 26.0118 14.0501 26.0095 14.0516 26.0087C14.0584 26.0118 14.0652 26.0142 14.0713 26.0181C14.0675 26.0126 14.0796 26.0196 14.0759 26.0157C14.0683 26.0149 14.0637 26.0095 14.0577 26.0055C14.0675 26.011 14.0713 26.0087 14.0804 26.0118C14.0796 26.0134 14.0743 26.0126 14.0781 26.0165C14.0812 26.0165 14.0819 26.0181 14.085 26.0173C14.085 26.0149 14.0887 26.0142 14.088 26.011C14.0804 26.0102 14.0759 26.0048 14.0675 26.0055C14.0622 26.0016 14.0652 26.0001 14.0622 25.9969C14.0486 25.9938 14.0417 26.0001 14.0296 25.9907C14.0281 25.9876 14.0402 25.9923 14.0342 25.9868C14.0281 25.9899 14.0258 25.9899 14.0182 25.9876C14.016 25.9844 14.0334 25.9891 14.0266 25.9829C14.0205 25.986 14.0152 25.9829 14.0107 25.9883C14.0001 25.9813 14.0213 25.9868 14.0129 25.9797C14.0046 25.9829 13.9978 25.9774 14.0016 25.9844C13.9947 25.9766 13.9864 25.9758 13.9849 25.9813C13.9826 25.9797 13.9811 25.979 13.9781 25.9805C13.9743 25.979 13.9803 25.9735 13.9705 25.9743C13.9675 25.9758 13.9682 25.9782 13.9659 25.9805C13.9606 25.9797 13.9462 25.9805 13.947 25.9766C13.9523 25.979 13.9576 25.9766 13.9629 25.9782C13.9493 25.9719 13.9288 25.9774 13.9296 25.9672C13.9212 25.9696 13.9121 25.9664 13.9038 25.9711C13.9106 25.9703 13.9174 25.975 13.9243 25.9696L13.9311 25.9735L13.9235 25.9766C13.9182 25.975 13.9091 25.9758 13.8985 25.975C13.8992 25.9727 13.9053 25.9696 13.8985 25.968C13.8879 25.9743 13.8719 25.9719 13.8666 25.9719C13.8651 25.9774 13.8522 25.979 13.8568 25.9829C13.8545 25.9829 13.853 25.9836 13.8515 25.9852C13.85 25.9805 13.8409 25.9836 13.8447 25.9774C13.8378 25.9805 13.8363 25.986 13.8378 25.9883C13.828 25.9883 13.8052 26.0032 13.8143 25.9923C13.8105 25.9923 13.7992 26.0001 13.7999 25.9946C13.8037 25.9923 13.809 25.993 13.8121 25.9891C13.8045 25.9868 13.7992 25.9938 13.7923 25.9946L13.7954 25.9915C13.7939 25.9915 13.7939 25.9899 13.7961 25.9883C13.7999 25.9883 13.803 25.9899 13.806 25.9876C13.8075 25.986 13.8105 25.9836 13.8083 25.9829C13.7992 25.9852 13.7863 25.9883 13.7848 25.9962C13.7711 25.9985 13.7613 26.0055 13.7514 26.0142C13.7552 26.0149 13.7567 26.0181 13.7552 26.022C13.7491 26.0157 13.7514 26.0251 13.7408 26.0282C13.7393 26.0235 13.7522 26.0165 13.7461 26.0149C13.734 26.0228 13.7203 26.0275 13.7112 26.0408C13.6968 26.0423 13.6847 26.0611 13.6733 26.0627C13.6741 26.0595 13.6779 26.0572 13.6756 26.0572C13.6688 26.0611 13.6726 26.0501 13.6658 26.058C13.665 26.0611 13.6688 26.0611 13.6695 26.0634C13.665 26.0728 13.6567 26.0775 13.6506 26.0853C13.6551 26.0846 13.6612 26.0814 13.6597 26.0861C13.6559 26.0908 13.6498 26.0932 13.646 26.0986C13.6483 26.0939 13.6423 26.0979 13.643 26.0947C13.6491 26.0932 13.6544 26.09 13.6574 26.0853C13.6498 26.0892 13.6498 26.0916 13.6491 26.0861C13.6423 26.0939 13.6316 26.0994 13.6263 26.1072C13.6279 26.101 13.6225 26.1002 13.618 26.1057C13.618 26.0994 13.6248 26.101 13.6256 26.0955C13.621 26.0947 13.6135 26.1002 13.6112 26.1119C13.6165 26.1119 13.6172 26.1104 13.6165 26.1151C13.6233 26.1104 13.6172 26.1072 13.6248 26.1033C13.6241 26.108 13.621 26.1096 13.621 26.1151C13.6104 26.1252 13.5953 26.1385 13.593 26.1503C13.5877 26.1534 13.5892 26.1495 13.5839 26.1526C13.5831 26.155 13.5824 26.1557 13.5816 26.1573C13.5793 26.1612 13.5846 26.1612 13.5801 26.1643C13.5763 26.1651 13.5702 26.1706 13.5649 26.1769C13.5619 26.18 13.5596 26.1839 13.5611 26.187C13.5574 26.1894 13.5604 26.1831 13.5574 26.1839C13.5574 26.1855 13.5543 26.1855 13.5528 26.1855C13.5543 26.1894 13.5513 26.1894 13.5483 26.1894C13.5483 26.1909 13.5498 26.1902 13.5498 26.1925C13.546 26.1925 13.5467 26.1956 13.543 26.1956L13.5419 26.1989C13.541 26.2007 13.5402 26.2019 13.5407 26.2035C13.5376 26.198 13.5361 26.2082 13.5316 26.2042C13.5286 26.2136 13.5225 26.2168 13.5134 26.2168C13.5141 26.2215 13.5134 26.2191 13.5104 26.2183C13.5081 26.223 13.5035 26.2277 13.499 26.2254C13.4997 26.2324 13.4914 26.2301 13.4891 26.2269C13.4899 26.2277 13.4914 26.2261 13.4899 26.2254C13.4884 26.2246 13.4869 26.2246 13.4869 26.2261C13.4884 26.2269 13.4891 26.2277 13.4891 26.2293C13.4869 26.2285 13.4869 26.2308 13.4853 26.2324C13.4861 26.2254 13.4816 26.2207 13.4876 26.2238C13.4869 26.2214 13.4906 26.2199 13.4914 26.216C13.4944 26.216 13.496 26.2191 13.4975 26.2175C13.499 26.2191 13.4952 26.2199 13.4982 26.2214C13.502 26.2175 13.5073 26.2128 13.5051 26.2074C13.5088 26.2082 13.5081 26.2121 13.5119 26.2121C13.5096 26.2058 13.5179 26.2082 13.5195 26.205L13.5184 26.2068C13.5182 26.2075 13.518 26.2082 13.518 26.209L13.5179 26.2113C13.5134 26.2097 13.5104 26.2128 13.5134 26.216C13.5187 26.216 13.5195 26.2121 13.5248 26.2105L13.524 26.2066C13.521 26.205 13.5202 26.2097 13.5195 26.2066C13.5217 26.2066 13.5195 26.2019 13.5195 26.2003C13.5278 26.1995 13.5202 26.1909 13.5255 26.1878C13.527 26.1909 13.524 26.1941 13.5263 26.1941L13.5282 26.1918L13.53 26.1912C13.5309 26.1907 13.5317 26.1899 13.5325 26.1891L13.5346 26.1862L13.5334 26.1859L13.5354 26.1831C13.5374 26.1826 13.5381 26.1835 13.5392 26.1839L13.5414 26.1839L13.5417 26.1811L13.5433 26.1802L13.5452 26.1792C13.5449 26.1787 13.5444 26.1785 13.5438 26.1783L13.5422 26.1783L13.543 26.1753C13.5452 26.1759 13.5454 26.1796 13.5463 26.182L13.5475 26.1839C13.5505 26.1839 13.5505 26.1808 13.552 26.18C13.5475 26.1776 13.552 26.1745 13.5536 26.1737C13.549 26.1722 13.5536 26.1698 13.5513 26.1683C13.5505 26.1683 13.5498 26.1683 13.5498 26.1675C13.5551 26.1643 13.5513 26.173 13.5566 26.1698C13.5642 26.1636 13.5596 26.1518 13.5657 26.1487C13.5649 26.1534 13.5649 26.1557 13.568 26.155C13.5786 26.1471 13.5755 26.1338 13.5763 26.1307L13.5769 26.1323C13.5777 26.1329 13.579 26.1328 13.5801 26.1328L13.5816 26.1331C13.5809 26.1377 13.574 26.1479 13.5771 26.1487C13.5892 26.1385 13.5824 26.1338 13.5892 26.1213C13.5922 26.1198 13.5922 26.1221 13.5953 26.1205L13.5975 26.1096C13.5953 26.1104 13.5907 26.1213 13.5892 26.1166C13.5937 26.1112 13.599 26.1072 13.6013 26.101L13.5887 26.1147C13.5845 26.1194 13.5804 26.1242 13.5763 26.129L13.5642 26.1432C13.5687 26.126 13.5983 26.1088 13.5945 26.0986C13.596 26.0924 13.5998 26.09 13.6028 26.0861C13.6021 26.0877 13.6013 26.0916 13.6028 26.0908L13.6066 26.0867L13.6062 26.0877C13.6052 26.0907 13.6044 26.0942 13.603 26.0976L13.6006 26.1025C13.6066 26.0994 13.6074 26.0955 13.6119 26.0963C13.6119 26.09 13.6097 26.0885 13.6142 26.0799L13.6138 26.0806L13.6145 26.0803L13.6156 26.0793L13.6166 26.0805C13.6171 26.081 13.6176 26.0814 13.6181 26.082L13.6188 26.0846C13.621 26.0814 13.6256 26.0783 13.6271 26.0736L13.6269 26.0738L13.6269 26.0742L13.6279 26.0744L13.6286 26.0733C13.6321 26.072 13.635 26.0701 13.6377 26.0679L13.6415 26.0642C13.6415 26.0634 13.6401 26.0634 13.6382 26.064L13.6376 26.0642L13.6365 26.0664C13.6347 26.0683 13.6322 26.0694 13.6303 26.0711L13.6286 26.0733L13.6296 26.0703C13.6302 26.0693 13.631 26.0683 13.632 26.0675ZM13.3944 25.2757V25.3993H13.1526V25.2757H13.3944Z" />
</svg>
